<svg width="68" height="21" viewBox="0 0 68 21" fill="none" xmlns="http://www.w3.org/2000/svg">
<g clip-path="url(#clip0_867_594)">
<path d="M23.4258 13.3754H39.8239V16.2831H23.4258V20.9354H44.509V0H23.4258V13.3754ZM28.1109 4.65231H39.8239V8.72308H28.1109V4.65231Z" fill="white"/>
<path d="M46.8516 0V20.9354H67.9348V0H46.8516ZM63.2496 16.2831H51.5367V4.65231H63.2496V16.2831Z" fill="white"/>
<path d="M3.22105 6.39692C5.01053 6.39692 6.44211 4.97538 6.44211 3.19847C6.44211 1.42154 5.01053 0 3.22105 0H0V3.19847C0 4.97538 1.43158 6.39692 3.22105 6.39692Z" fill="white"/>
<path d="M21.0833 6.68769C21.0833 3.00462 18.0574 0 14.3483 0C10.6392 0 7.6134 3.00462 7.6134 6.68769V7.56H6.73493C3.02584 7.56 0 10.5646 0 14.2477C0 17.9308 3.02584 20.9354 6.73493 20.9354H8.78469V13.6662L13.4699 20.9354H21.0833V13.3754L13.7627 8.72308H21.0833V6.68769Z" fill="white"/>
</g>
<defs>
<clipPath id="clip0_867_594">
<rect width="68" height="21" fill="white"/>
</clipPath>
</defs>
</svg>
