<svg width="40" height="40" viewBox="0 0 40 40" fill="none" xmlns="http://www.w3.org/2000/svg">
<path d="M29.7778 5.58974C29.3829 5.58974 29.0628 5.91118 29.0628 6.30769C29.0628 6.7042 29.3829 7.02564 29.7778 7.02564H34.6039C34.9987 7.02564 35.3188 6.7042 35.3188 6.30769C35.3188 5.91118 34.9987 5.58974 34.6039 5.58974H29.7778Z" fill="black"/>
<path d="M29.0628 10.2564C29.0628 9.8599 29.3829 9.53846 29.7778 9.53846H34.6039C34.9987 9.53846 35.3188 9.8599 35.3188 10.2564C35.3188 10.6529 34.9987 10.9744 34.6039 10.9744H29.7778C29.3829 10.9744 29.0628 10.6529 29.0628 10.2564Z" fill="black"/>
<path d="M29.7778 13.8462C29.3829 13.8462 29.0628 14.1676 29.0628 14.5641C29.0628 14.9606 29.3829 15.2821 29.7778 15.2821H34.6039C34.9987 15.2821 35.3188 14.9606 35.3188 14.5641C35.3188 14.1676 34.9987 13.8462 34.6039 13.8462H29.7778Z" fill="black"/>
<path d="M29.0628 18.5128C29.0628 18.1163 29.3829 17.7949 29.7778 17.7949H34.6039C34.9987 17.7949 35.3188 18.1163 35.3188 18.5128C35.3188 18.9093 34.9987 19.2308 34.6039 19.2308H29.7778C29.3829 19.2308 29.0628 18.9093 29.0628 18.5128Z" fill="black"/>
<path d="M24.63 5.51795C24.393 5.20074 23.9449 5.13645 23.629 5.37436C23.3131 5.61227 23.2491 6.06228 23.486 6.37949L24.5493 7.80312C24.5669 7.82777 24.5863 7.8515 24.6073 7.87414C24.6643 7.93569 24.7302 7.98521 24.8014 8.02221C24.9894 8.11986 25.2148 8.13023 25.4134 8.04412C25.4873 8.01223 25.5566 7.96738 25.618 7.90984C25.6405 7.88879 25.6615 7.86653 25.6807 7.84323L27.9944 5.16251C28.253 4.86287 28.2208 4.40945 27.9224 4.14976C27.624 3.89007 27.1724 3.92246 26.9138 4.2221L25.1706 6.24184L24.63 5.51795Z" fill="black"/>
<path d="M24.63 9.46667C24.393 9.14946 23.9449 9.08517 23.629 9.32308C23.3131 9.56098 23.2491 10.011 23.486 10.3282L24.5493 11.7518C24.5669 11.7765 24.5863 11.8002 24.6074 11.8229C24.6643 11.8844 24.7302 11.9339 24.8014 11.9709C24.9894 12.0686 25.2148 12.079 25.4134 11.9928C25.4873 11.9609 25.5567 11.9161 25.618 11.8585C25.6405 11.8375 25.6615 11.8152 25.6807 11.792L27.9944 9.11123C28.253 8.81159 28.2208 8.35817 27.9224 8.09848C27.624 7.83879 27.1724 7.87118 26.9138 8.17082L25.1706 10.1906L24.63 9.46667Z" fill="black"/>
<path d="M24.63 13.4154C24.393 13.0982 23.9449 13.0339 23.629 13.2718C23.3131 13.5097 23.2491 13.9597 23.486 14.2769L24.5493 15.7006C24.5669 15.7252 24.5863 15.749 24.6074 15.7716C24.6643 15.8331 24.7302 15.8827 24.8014 15.9196C24.9894 16.0173 25.2147 16.0277 25.4133 15.9416C25.4872 15.9097 25.5566 15.8648 25.618 15.8073C25.6405 15.7862 25.6615 15.764 25.6807 15.7407L27.9944 13.0599C28.253 12.7603 28.2208 12.3069 27.9224 12.0472C27.624 11.7875 27.1724 11.8199 26.9138 12.1195L25.1706 14.1393L24.63 13.4154Z" fill="black"/>
<path d="M24.63 17.5436C24.393 17.2264 23.9449 17.1621 23.629 17.4C23.3131 17.6379 23.2491 18.0879 23.486 18.4051L24.5493 19.8288C24.5669 19.8534 24.5863 19.8772 24.6074 19.8998C24.6643 19.9613 24.7302 20.0109 24.8014 20.0478C24.9894 20.1455 25.2147 20.1559 25.4133 20.0698C25.4872 20.0379 25.5566 19.9931 25.618 19.9355C25.6405 19.9144 25.6615 19.8922 25.6807 19.8689L27.9944 17.1882C28.253 16.8885 28.2208 16.4351 27.9224 16.1754C27.624 15.9157 27.1724 15.9481 26.9138 16.2477L25.1706 18.2675L24.63 17.5436Z" fill="black"/>
<path d="M16.1932 29.8205C16.1932 30.217 15.8731 30.5385 15.4783 30.5385C15.0834 30.5385 14.7633 30.217 14.7633 29.8205C14.7633 29.424 15.0834 29.1026 15.4783 29.1026C15.8731 29.1026 16.1932 29.424 16.1932 29.8205Z" fill="black"/>
<path d="M17.2657 30.5385C17.6606 30.5385 17.9807 30.217 17.9807 29.8205C17.9807 29.424 17.6606 29.1026 17.2657 29.1026C16.8708 29.1026 16.5507 29.424 16.5507 29.8205C16.5507 30.217 16.8708 30.5385 17.2657 30.5385Z" fill="black"/>
<path d="M19.7681 29.8205C19.7681 30.217 19.448 30.5385 19.0531 30.5385C18.6583 30.5385 18.3382 30.217 18.3382 29.8205C18.3382 29.424 18.6583 29.1026 19.0531 29.1026C19.448 29.1026 19.7681 29.424 19.7681 29.8205Z" fill="black"/>
<path fill-rule="evenodd" clip-rule="evenodd" d="M17.9807 17.7949C17.9807 21.2644 15.1798 24.0769 11.7246 24.0769C8.26952 24.0769 5.4686 21.2644 5.4686 17.7949C5.4686 14.3254 8.26952 11.5128 11.7246 11.5128C15.1798 11.5128 17.9807 14.3254 17.9807 17.7949ZM16.5507 17.7949C16.5507 20.4713 14.39 22.641 11.7246 22.641C9.34286 22.641 7.36406 20.9085 6.96994 18.63L11.9308 18.4967C11.9675 18.5046 12.0054 18.5097 12.0441 18.5118C12.4384 18.5329 12.7751 18.229 12.7961 17.833L13.0453 13.1324C15.0687 13.7092 16.5507 15.5782 16.5507 17.7949ZM11.4043 17.0744L11.623 12.9498C9.20602 12.9999 7.22564 14.8343 6.93522 17.1945L11.4043 17.0744Z" fill="black"/>
<path fill-rule="evenodd" clip-rule="evenodd" d="M21.5556 2.89744C21.5556 2.4018 21.9557 2 22.4493 2H37.1063C37.5999 2 38 2.4018 38 2.89744V21.9231C38 22.4187 37.5999 22.8205 37.1063 22.8205H33.5314V31.4359C33.5314 31.9315 33.1313 32.3333 32.6377 32.3333H20.438C20.4674 32.4481 20.4831 32.5684 20.4831 32.6923V35.5641H26.3816C26.7765 35.5641 27.0966 35.8855 27.0966 36.2821C27.0966 36.6786 26.7765 37 26.3816 37H8.14976C7.75489 37 7.43478 36.6786 7.43478 36.2821C7.43478 35.8855 7.75489 35.5641 8.14976 35.5641H14.0483V32.6923C14.0483 32.5684 14.064 32.4481 14.0934 32.3333H1.89372C1.40013 32.3333 1 31.9315 1 31.4359V7.5641C1 7.06846 1.40013 6.66667 1.89372 6.66667H21.5556V2.89744ZM22.9855 21.3846V3.4359H36.57V21.3846H22.9855ZM21.5556 8.10256H2.42995V30.8974H32.1014V22.8205H31.029V27.8462C31.029 28.3418 30.6289 28.7436 30.1353 28.7436H4.21739C3.7238 28.7436 3.32367 28.3418 3.32367 27.8462V9.89744C3.32367 9.4018 3.7238 9 4.21739 9H21.5556V8.10256ZM21.5556 10.4359V21.9231C21.5556 22.4187 21.9557 22.8205 22.4493 22.8205H29.599V27.3077H4.75362V10.4359H21.5556ZM19.0531 35.5641V32.6923H15.4783V35.5641H19.0531Z" fill="black"/>
</svg>
