<svg width="40" height="40" viewBox="0 0 40 40" fill="none" xmlns="http://www.w3.org/2000/svg">
<path d="M3.88477 36.2354V8.00229C3.88477 7.9264 3.96066 7.8505 4.03656 7.9264L10.943 10.8863C11.0189 10.8863 11.0189 10.9622 11.0189 10.9622V36.2354" stroke="#16A4A4" stroke-width="1.4" stroke-miterlimit="10"/>
<path d="M4.1123 13.8477H11.0188" stroke="#16A4A4" stroke-width="1.4" stroke-miterlimit="10"/>
<path d="M6.99609 13.8477V36.2369" stroke="#16A4A4" stroke-width="1.4" stroke-miterlimit="10"/>
<path d="M11.0195 18.173H19.2162C19.2921 18.173 19.368 18.2489 19.368 18.3248V36.312" stroke="#16A4A4" stroke-width="1.4" stroke-miterlimit="10"/>
<path d="M12.46 21.7404H16.4824" stroke="#16A4A4" stroke-width="1.4" stroke-miterlimit="10"/>
<path d="M12.46 24.7758H16.4824" stroke="#16A4A4" stroke-width="1.4" stroke-miterlimit="10"/>
<path d="M12.46 27.8877H16.4824" stroke="#16A4A4" stroke-width="1.4" stroke-miterlimit="10"/>
<path d="M12.3096 30.7719H16.4838" stroke="#16A4A4" stroke-width="1.4" stroke-miterlimit="10"/>
<path d="M12.3096 33.8838H16.4838" stroke="#16A4A4" stroke-width="1.4" stroke-miterlimit="10"/>
<path d="M27.5639 18.1735V13.0885H31.4345C31.5863 13.0885 31.6622 12.9367 31.5104 12.8608L22.7066 4.05692C22.6307 3.98103 22.5548 3.98103 22.4789 4.05692L13.675 12.8608C13.5991 12.9367 13.675 13.0885 13.7509 13.0885H17.6216V16.352" stroke="#16A4A4" stroke-width="1.4" stroke-miterlimit="10"/>
<path d="M35.1524 36.2363V26.2939H38.1882C38.2641 26.2939 38.34 26.1422 38.2641 26.0663L31.4335 19.2357C31.3576 19.1598 31.2817 19.1598 31.2817 19.2357L29.5361 20.9813" stroke="#16A4A4" stroke-width="1.4" stroke-miterlimit="10"/>
<path d="M27.5645 36.2368V19.2362" stroke="#16A4A4" stroke-width="1.4" stroke-miterlimit="10" stroke-dasharray="1.99 1.99"/>
<path d="M1 36.2369H38.796" stroke="#16A4A4" stroke-width="1.4" stroke-miterlimit="10"/>
</svg>
