<svg width="40" height="40" viewBox="0 0 40 40" fill="none" xmlns="http://www.w3.org/2000/svg">
<path d="M36.6663 32.5H4.16634C3.70634 32.5 3.33301 32.8725 3.33301 33.3333V36.6667C3.33301 37.1275 3.70634 37.5 4.16634 37.5H36.6663C37.1272 37.5 37.4997 37.1275 37.4997 36.6667V33.3333C37.4997 32.8725 37.1272 32.5 36.6663 32.5ZM35.833 35.8333H4.99967V34.1667H35.833V35.8333ZM5.83301 30V5C5.83301 3.62167 6.95467 2.5 8.33301 2.5H19.1663C20.5447 2.5 21.6663 3.62167 21.6663 5V30C21.6663 30.4608 21.2938 30.8333 20.833 30.8333C20.373 30.8333 19.9997 30.4608 19.9997 30V5C19.9997 4.54083 19.6255 4.16667 19.1663 4.16667H8.33301C7.87384 4.16667 7.49967 4.54083 7.49967 5V30C7.49967 30.4608 7.12634 30.8333 6.66634 30.8333C6.20634 30.8333 5.83301 30.4608 5.83301 30ZM14.9997 30V24.1667H12.4997V30C12.4997 30.4608 12.1263 30.8333 11.6663 30.8333C11.2063 30.8333 10.833 30.4608 10.833 30V24.1667C10.833 23.2475 11.5805 22.5 12.4997 22.5H14.9997C15.9188 22.5 16.6663 23.2475 16.6663 24.1667V30C16.6663 30.4608 16.293 30.8333 15.833 30.8333C15.373 30.8333 14.9997 30.4608 14.9997 30ZM23.333 16.6667C23.333 16.2067 23.7055 15.8333 24.1663 15.8333H32.4997C33.878 15.8333 34.9997 16.955 34.9997 18.3333V30C34.9997 30.4608 34.6272 30.8333 34.1663 30.8333C33.7055 30.8333 33.333 30.4608 33.333 30V18.3333C33.333 17.8742 32.9597 17.5 32.4997 17.5H24.1663C23.7055 17.5 23.333 17.1267 23.333 16.6667ZM23.333 30C23.333 29.5392 23.7055 29.1667 24.1663 29.1667H25.833C26.2938 29.1667 26.6663 29.5392 26.6663 30C26.6663 30.4608 26.2938 30.8333 25.833 30.8333H24.1663C23.7055 30.8333 23.333 30.4608 23.333 30ZM31.6663 30C31.6663 30.4608 31.2938 30.8333 30.833 30.8333H29.1663C28.7055 30.8333 28.333 30.4608 28.333 30C28.333 29.5392 28.7055 29.1667 29.1663 29.1667H30.833C31.2938 29.1667 31.6663 29.5392 31.6663 30ZM23.333 26.6667C23.333 26.2058 23.7055 25.8333 24.1663 25.8333H25.833C26.2938 25.8333 26.6663 26.2058 26.6663 26.6667C26.6663 27.1275 26.2938 27.5 25.833 27.5H24.1663C23.7055 27.5 23.333 27.1275 23.333 26.6667ZM31.6663 26.6667C31.6663 27.1275 31.2938 27.5 30.833 27.5H29.1663C28.7055 27.5 28.333 27.1275 28.333 26.6667C28.333 26.2058 28.7055 25.8333 29.1663 25.8333H30.833C31.2938 25.8333 31.6663 26.2058 31.6663 26.6667ZM23.333 23.3333C23.333 22.8725 23.7055 22.5 24.1663 22.5H25.833C26.2938 22.5 26.6663 22.8725 26.6663 23.3333C26.6663 23.7942 26.2938 24.1667 25.833 24.1667H24.1663C23.7055 24.1667 23.333 23.7942 23.333 23.3333ZM31.6663 23.3333C31.6663 23.7942 31.2938 24.1667 30.833 24.1667H29.1663C28.7055 24.1667 28.333 23.7942 28.333 23.3333C28.333 22.8725 28.7055 22.5 29.1663 22.5H30.833C31.2938 22.5 31.6663 22.8725 31.6663 23.3333ZM23.333 20C23.333 19.54 23.7055 19.1667 24.1663 19.1667H25.833C26.2938 19.1667 26.6663 19.54 26.6663 20C26.6663 20.46 26.2938 20.8333 25.833 20.8333H24.1663C23.7055 20.8333 23.333 20.46 23.333 20ZM31.6663 20C31.6663 20.46 31.2938 20.8333 30.833 20.8333H29.1663C28.7055 20.8333 28.333 20.46 28.333 20C28.333 19.54 28.7055 19.1667 29.1663 19.1667H30.833C31.2938 19.1667 31.6663 19.54 31.6663 20ZM9.16634 20C9.16634 19.54 9.53967 19.1667 9.99967 19.1667H11.6663C12.1263 19.1667 12.4997 19.54 12.4997 20C12.4997 20.46 12.1263 20.8333 11.6663 20.8333H9.99967C9.53967 20.8333 9.16634 20.46 9.16634 20ZM17.4997 20.8333H15.833C15.373 20.8333 14.9997 20.46 14.9997 20C14.9997 19.54 15.373 19.1667 15.833 19.1667H17.4997C17.9597 19.1667 18.333 19.54 18.333 20C18.333 20.46 17.9597 20.8333 17.4997 20.8333ZM9.16634 16.6667C9.16634 16.2067 9.53967 15.8333 9.99967 15.8333H11.6663C12.1263 15.8333 12.4997 16.2067 12.4997 16.6667C12.4997 17.1267 12.1263 17.5 11.6663 17.5H9.99967C9.53967 17.5 9.16634 17.1267 9.16634 16.6667ZM18.333 16.6667C18.333 17.1267 17.9597 17.5 17.4997 17.5H15.833C15.373 17.5 14.9997 17.1267 14.9997 16.6667C14.9997 16.2067 15.373 15.8333 15.833 15.8333H17.4997C17.9597 15.8333 18.333 16.2067 18.333 16.6667ZM9.16634 13.3333C9.16634 12.8733 9.53967 12.5 9.99967 12.5H11.6663C12.1263 12.5 12.4997 12.8733 12.4997 13.3333C12.4997 13.7933 12.1263 14.1667 11.6663 14.1667H9.99967C9.53967 14.1667 9.16634 13.7933 9.16634 13.3333ZM18.333 13.3333C18.333 13.7933 17.9597 14.1667 17.4997 14.1667H15.833C15.373 14.1667 14.9997 13.7933 14.9997 13.3333C14.9997 12.8733 15.373 12.5 15.833 12.5H17.4997C17.9597 12.5 18.333 12.8733 18.333 13.3333ZM9.16634 10C9.16634 9.54 9.53967 9.16667 9.99967 9.16667H11.6663C12.1263 9.16667 12.4997 9.54 12.4997 10C12.4997 10.46 12.1263 10.8333 11.6663 10.8333H9.99967C9.53967 10.8333 9.16634 10.46 9.16634 10ZM18.333 10C18.333 10.46 17.9597 10.8333 17.4997 10.8333H15.833C15.373 10.8333 14.9997 10.46 14.9997 10C14.9997 9.54 15.373 9.16667 15.833 9.16667H17.4997C17.9597 9.16667 18.333 9.54 18.333 10ZM9.16634 6.66667C9.16634 6.20667 9.53967 5.83333 9.99967 5.83333H11.6663C12.1263 5.83333 12.4997 6.20667 12.4997 6.66667C12.4997 7.12667 12.1263 7.5 11.6663 7.5H9.99967C9.53967 7.5 9.16634 7.12667 9.16634 6.66667ZM18.333 6.66667C18.333 7.12667 17.9597 7.5 17.4997 7.5H15.833C15.373 7.5 14.9997 7.12667 14.9997 6.66667C14.9997 6.20667 15.373 5.83333 15.833 5.83333H17.4997C17.9597 5.83333 18.333 6.20667 18.333 6.66667Z" fill="#16A4A4"/>
</svg>
