<svg width="19" height="20" viewBox="0 0 19 20" fill="none" xmlns="http://www.w3.org/2000/svg">
<path d="M15.6873 7L9.40402 1M15.6873 7H12.7551C11.5821 7 10.9956 7 10.5476 6.78201C10.1535 6.59027 9.83309 6.28431 9.6323 5.90798C9.40402 5.48016 9.40402 4.9201 9.40402 3.8V1M15.6873 7V9M9.40402 1H4.37743C3.20445 1 2.61795 1 2.16994 1.21799C1.77584 1.40973 1.45544 1.71569 1.25465 2.09202C1.02637 2.51984 1.02637 3.07989 1.02637 4.2V15.8C1.02637 16.9201 1.02637 17.4802 1.25465 17.908C1.45544 18.2843 1.77584 18.5903 2.16994 18.782C2.61795 19 3.20444 19 4.37743 19H10.4512M15.6873 13V19M15.6873 19L13.5928 17M15.6873 19L17.7817 17M5.21519 15H9.40402M5.21519 11H11.4984M5.21519 7H6.2624" stroke="#16A4A4" stroke-width="2" stroke-linecap="round" stroke-linejoin="round"/>
</svg>
