<svg width="78" height="94" viewBox="0 0 78 94" fill="none" xmlns="http://www.w3.org/2000/svg">
<path d="M72.9717 32.8176L43.841 5M72.9717 32.8176H59.3774C53.9391 32.8176 51.2198 32.8176 49.1428 31.8069C47.3157 30.9179 45.8303 29.4994 44.8993 27.7547C43.841 25.7712 43.841 23.1746 43.841 17.9815V5M72.9717 32.8176V42.0901M43.841 5H20.5364C15.0982 5 12.379 5 10.3019 6.01066C8.47476 6.89962 6.98929 8.31813 6.05837 10.0629C5 12.0464 5 14.6429 5 19.836V73.6167C5 78.8097 5 81.4065 6.05837 83.3899C6.98929 85.1345 8.47476 86.5532 10.3019 87.442C12.379 88.4527 15.0981 88.4527 20.5364 88.4527H48.6961M24.4205 69.9076H43.841M24.4205 51.3626H53.5512M24.4205 32.8176H29.2756" stroke="#16A4A4" stroke-width="9.27252" stroke-linecap="round" stroke-linejoin="round"/>
<path d="M73 39.772V73.6166C73 78.8097 71.5336 81.4065 70.4752 83.3899C69.5443 85.1345 68.0589 86.5532 66.2317 87.4419C64.1546 88.4526 54.4788 88.4526 49.0405 88.4526" stroke="#16A4A4" stroke-width="9.27252" stroke-linecap="round" stroke-linejoin="round"/>
</svg>
