<svg width="40" height="40" viewBox="0 0 40 40" fill="none" xmlns="http://www.w3.org/2000/svg">
<path d="M17.7178 37.3253V28.7832L20.0688 25.5701C20.1472 25.4134 20.3039 25.4134 20.3823 25.5701L22.655 28.7832V37.3253" stroke="#16A4A4" stroke-width="1.4" stroke-miterlimit="10"/>
<path d="M17.5615 29.4107H22.8122" stroke="#16A4A4" stroke-width="1.4" stroke-miterlimit="10"/>
<path d="M20.2266 29.8806V35.6799" stroke="#16A4A4" stroke-width="1.4" stroke-miterlimit="10"/>
<path d="M32.9994 33.7202V11.0719L24.9275 3H8.2351C8.07837 3 8 3.07837 8 3.2351V33.7202" stroke="#16A4A4" stroke-width="1.4" stroke-miterlimit="10"/>
<path d="M24.9268 3.00003V10.9152C24.9268 10.9936 25.0051 11.0719 25.0835 11.0719H32.9987" stroke="#16A4A4" stroke-width="1.4" stroke-miterlimit="10"/>
<path d="M19.1289 22.044C19.6775 22.044 20.1477 22.5142 20.1477 23.0628V23.8465" stroke="#16A4A4" stroke-width="1.4" stroke-miterlimit="10"/>
<path d="M16.3066 22.044H17.5605" stroke="#16A4A4" stroke-width="1.4" stroke-miterlimit="10"/>
<path d="M21.3219 18.1255H13.3283C12.2312 18.1255 11.3691 18.9876 11.3691 20.0847C11.3691 21.1819 12.2312 22.0439 13.3283 22.0439H15.0524" stroke="#16A4A4" stroke-width="1.4" stroke-miterlimit="10"/>
<path d="M18.3438 14.2061H27.0426C28.1397 14.2061 29.0018 15.0681 29.0018 16.1653C29.0018 17.2624 28.1397 18.1245 27.0426 18.1245H22.8107" stroke="#16A4A4" stroke-width="1.4" stroke-miterlimit="10"/>
<path d="M22.6541 10.2876H13.3283C12.2312 10.2876 11.3691 11.1497 11.3691 12.2468C11.3691 13.344 12.2312 14.206 13.3283 14.206H15.8361" stroke="#16A4A4" stroke-width="1.4" stroke-miterlimit="10"/>
<path d="M8.0791 34.5817V35.9139" stroke="#16A4A4" stroke-width="1.4" stroke-miterlimit="10"/>
<path d="M11.2129 34.5817V35.9139" stroke="#16A4A4" stroke-width="1.4" stroke-miterlimit="10"/>
<path d="M14.3496 34.5817V35.9139" stroke="#16A4A4" stroke-width="1.4" stroke-miterlimit="10"/>
<path d="M33 34.5817V35.9139" stroke="#16A4A4" stroke-width="1.4" stroke-miterlimit="10"/>
<path d="M29.8652 34.5817V35.9139" stroke="#16A4A4" stroke-width="1.4" stroke-miterlimit="10"/>
<path d="M26.7314 34.5817V35.9139" stroke="#16A4A4" stroke-width="1.4" stroke-miterlimit="10"/>
</svg>
