<svg width="63" height="63" viewBox="0 0 63 63" fill="none" xmlns="http://www.w3.org/2000/svg">
<path d="M37.3601 51.4442H26.9593C26.4027 51.4427 25.8691 51.2217 25.4744 50.8292C25.0797 50.4367 24.8558 49.9044 24.8512 49.3477V47.4027C24.8588 46.0059 24.5574 44.6247 23.9684 43.3581C23.3794 42.0916 22.5175 40.971 21.4444 40.0767C18.8572 37.9327 16.9731 35.0614 16.036 31.8345C15.0989 28.6077 15.152 25.1738 16.1884 21.9775C17.2247 18.7811 19.1967 15.9694 21.849 13.9064C24.5013 11.8434 27.7118 10.6239 31.0649 10.406C33.3593 10.2457 35.6621 10.5636 37.8273 11.3394C39.9926 12.1153 41.9732 13.3323 43.6436 14.9134C45.3724 16.5334 46.7386 18.5011 47.652 20.6871C48.5655 22.8731 49.0057 25.2278 48.9435 27.5962C48.8813 29.9646 48.3183 32.293 47.2914 34.4281C46.2644 36.5631 44.797 38.4565 42.9856 39.9836C41.8983 40.8914 41.0223 42.0256 40.4188 43.3071C39.8153 44.5885 39.4988 45.9863 39.4915 47.4027V49.3477C39.4892 49.6254 39.4322 49.8998 39.3239 50.1554C39.2155 50.411 39.0579 50.6427 38.86 50.8374C38.6621 51.0321 38.4277 51.1859 38.1704 51.29C37.913 51.3941 37.6377 51.4465 37.3601 51.4442ZM32.1713 11.5299C31.8258 11.5299 31.4822 11.5416 31.1406 11.5649C28.0206 11.7692 25.0337 12.9048 22.5661 14.825C20.0985 16.7451 18.2637 19.3614 17.2991 22.3356C16.3345 25.3097 16.2844 28.5049 17.1552 31.5078C18.0261 34.5107 19.7779 37.1833 22.184 39.1799C23.3893 40.1834 24.3578 41.4409 25.0203 42.8624C25.6827 44.284 26.0227 45.8344 26.0159 47.4027V49.3477C26.0174 49.5975 26.1173 49.8366 26.2939 50.0131C26.4705 50.1897 26.7096 50.2896 26.9593 50.2912H37.3601C37.6103 50.2912 37.8502 50.1918 38.0272 50.0148C38.2041 49.8379 38.3035 49.598 38.3035 49.3477V47.4027C38.3131 45.8147 38.67 44.248 39.349 42.8125C40.0281 41.377 41.0128 40.1073 42.2343 39.0926C44.6801 37.0275 46.4326 34.2612 47.2547 31.1676C48.0769 28.0741 47.9291 24.8027 46.8314 21.7959C45.7336 18.7891 43.7388 16.192 41.1168 14.356C38.4949 12.5199 35.3723 11.5334 32.1713 11.5299Z" fill="white" stroke="#FFFDFD"/>
<path d="M34.0936 59H31.0305C29.6328 59 29.0039 56.4668 29.0039 55.6981C29.0039 55.5436 29.0653 55.3955 29.1745 55.2863C29.2837 55.1771 29.4318 55.1157 29.5863 55.1157C29.7407 55.1157 29.8888 55.1771 29.998 55.2863C30.1073 55.3955 30.1686 55.5436 30.1686 55.6981C30.1686 56.4493 30.751 57.7421 31.0421 57.8353H34.1111C34.3965 57.7421 34.9672 56.4493 34.9672 55.6981C34.9672 55.5436 35.0285 55.3955 35.1377 55.2863C35.2469 55.1771 35.3951 55.1157 35.5495 55.1157C35.704 55.1157 35.8521 55.1771 35.9613 55.2863C36.0705 55.3955 36.1319 55.5436 36.1319 55.6981C36.1144 56.4668 35.4855 59 34.0936 59Z" fill="white" stroke="white"/>
<path d="M32.16 8.83351C32.0055 8.83351 31.8574 8.77215 31.7482 8.66294C31.639 8.55373 31.5776 8.4056 31.5776 8.25116V4.58235C31.5776 4.4279 31.639 4.27978 31.7482 4.17057C31.8574 4.06135 32.0055 4 32.16 4C32.3144 4 32.4626 4.06135 32.5718 4.17057C32.681 4.27978 32.7423 4.4279 32.7423 4.58235V8.25116C32.7423 8.4056 32.681 8.55373 32.5718 8.66294C32.4626 8.77215 32.3144 8.83351 32.16 8.83351Z" fill="white"/>
<path d="M22.7083 11.3668C22.6057 11.3672 22.5048 11.3405 22.4158 11.2894C22.3269 11.2382 22.253 11.1645 22.2017 11.0756L20.3673 7.89599C20.3251 7.82971 20.2968 7.75559 20.2841 7.67809C20.2713 7.60059 20.2744 7.52131 20.2931 7.44502C20.3118 7.36874 20.3457 7.29702 20.3928 7.23418C20.4399 7.17135 20.4993 7.1187 20.5673 7.07939C20.6353 7.04008 20.7105 7.01494 20.7885 7.00547C20.8665 6.996 20.9455 7.0024 21.021 7.02428C21.0964 7.04616 21.1666 7.08308 21.2274 7.13281C21.2882 7.18253 21.3383 7.24404 21.3747 7.31364L23.2091 10.4933C23.2855 10.6263 23.3064 10.7841 23.2671 10.9324C23.2279 11.0807 23.1317 11.2075 22.9995 11.2853C22.9113 11.3376 22.8109 11.3657 22.7083 11.3668Z" fill="white"/>
<path d="M15.7845 18.2852C15.6825 18.2859 15.5821 18.2598 15.4934 18.2095L12.3195 16.3751C12.1852 16.2978 12.087 16.1704 12.0466 16.0208C12.0062 15.8712 12.0269 15.7116 12.1041 15.5772C12.1813 15.4429 12.3087 15.3447 12.4584 15.3043C12.608 15.2639 12.7675 15.2845 12.9019 15.3618L16.0815 17.1962C16.1937 17.2597 16.2816 17.3588 16.3315 17.4777C16.3813 17.5966 16.3903 17.7287 16.357 17.8533C16.3237 17.9778 16.25 18.0878 16.1474 18.166C16.0449 18.2441 15.9193 18.2861 15.7904 18.2852H15.7845Z" fill="white"/>
<path d="M13.2512 27.7366H9.58235C9.4279 27.7366 9.27978 27.6752 9.17057 27.566C9.06135 27.4568 9 27.3087 9 27.1542C9 26.9998 9.06135 26.8517 9.17057 26.7425C9.27978 26.6333 9.4279 26.5719 9.58235 26.5719H13.2512C13.4056 26.5719 13.5537 26.6333 13.6629 26.7425C13.7722 26.8517 13.8335 26.9998 13.8335 27.1542C13.8335 27.3087 13.7722 27.4568 13.6629 27.566C13.5537 27.6752 13.4056 27.7366 13.2512 27.7366Z" fill="white"/>
<path d="M12.5874 39.0285C12.4585 39.0294 12.3329 38.9874 12.2303 38.9093C12.1278 38.8311 12.054 38.7211 12.0207 38.5965C11.9874 38.472 11.9964 38.3399 12.0463 38.221C12.0961 38.102 12.184 38.003 12.2962 37.9395L15.4991 36.1051C15.5656 36.0666 15.639 36.0416 15.7152 36.0316C15.7914 36.0216 15.8687 36.0267 15.9429 36.0468C16.0171 36.0668 16.0865 36.1013 16.1473 36.1483C16.2081 36.1953 16.2589 36.2538 16.297 36.3205C16.3355 36.387 16.3604 36.4604 16.3705 36.5366C16.3805 36.6127 16.3753 36.6901 16.3553 36.7643C16.3352 36.8384 16.3007 36.9079 16.2538 36.9687C16.2068 37.0294 16.1482 37.0803 16.0815 37.1183L12.9077 38.9528C12.8114 39.0106 12.6994 39.0371 12.5874 39.0285Z" fill="white"/>
<path d="M41.6116 11.3668C41.509 11.3657 41.4086 11.3376 41.3204 11.2853C41.1901 11.2056 41.0964 11.0779 41.0594 10.9298C41.0223 10.7816 41.045 10.6249 41.1224 10.4933L42.9568 7.31364C42.9932 7.24404 43.0433 7.18253 43.1041 7.13281C43.1649 7.08308 43.2351 7.04616 43.3106 7.02428C43.386 7.0024 43.4651 6.996 43.543 7.00547C43.621 7.01494 43.6962 7.04008 43.7642 7.07939C43.8322 7.1187 43.8916 7.17135 43.9387 7.23418C43.9858 7.29702 44.0198 7.36874 44.0384 7.44502C44.0571 7.52131 44.0602 7.60059 44.0474 7.67809C44.0347 7.75559 44.0064 7.82971 43.9643 7.89599L42.1299 11.0756C42.0776 11.1662 42.0019 11.2411 41.9107 11.2923C41.8195 11.3436 41.7161 11.3693 41.6116 11.3668Z" fill="white"/>
<path d="M48.5356 18.2852C48.4067 18.2861 48.2811 18.2441 48.1786 18.166C48.076 18.0878 48.0023 17.9778 47.969 17.8533C47.9357 17.7287 47.9447 17.5966 47.9945 17.4777C48.0444 17.3587 48.1323 17.2597 48.2445 17.1962L51.4183 15.3618C51.4848 15.3235 51.5582 15.2988 51.6343 15.2889C51.7104 15.279 51.7877 15.2843 51.8618 15.3043C51.9359 15.3243 52.0053 15.3587 52.0661 15.4055C52.1269 15.4524 52.1779 15.5107 52.2161 15.5772C52.2543 15.6438 52.2791 15.7172 52.289 15.7933C52.2988 15.8694 52.2936 15.9467 52.2736 16.0208C52.2536 16.0949 52.2192 16.1643 52.1723 16.2251C52.1255 16.2859 52.0672 16.3368 52.0006 16.3751L48.8268 18.2095C48.7381 18.2598 48.6377 18.2859 48.5356 18.2852Z" fill="white"/>
<path d="M54.738 27.7366H51.0692C50.9147 27.7366 50.7666 27.6752 50.6574 27.566C50.5482 27.4568 50.4868 27.3087 50.4868 27.1542C50.4868 26.9998 50.5482 26.8517 50.6574 26.7425C50.7666 26.6333 50.9147 26.5719 51.0692 26.5719H54.738C54.8924 26.5719 55.0405 26.6333 55.1498 26.7425C55.259 26.8517 55.3203 26.9998 55.3203 27.1542C55.3203 27.3087 55.259 27.4568 55.1498 27.566C55.0405 27.6752 54.8924 27.7366 54.738 27.7366Z" fill="white"/>
<path d="M51.7095 39.0285C51.6067 39.0295 51.5057 39.0012 51.4183 38.947L48.2445 37.1184C48.1113 37.0416 48.0139 36.9152 47.9736 36.7668C47.9332 36.6184 47.9531 36.4601 48.0291 36.3264C48.0671 36.2597 48.118 36.2011 48.1787 36.1541C48.2395 36.1071 48.309 36.0726 48.3831 36.0526C48.4573 36.0326 48.5347 36.0274 48.6108 36.0374C48.687 36.0474 48.7604 36.0724 48.8269 36.1109L52.0007 37.9453C52.1129 38.0089 52.2008 38.1079 52.2506 38.2268C52.3005 38.3457 52.3095 38.4778 52.2762 38.6024C52.2429 38.727 52.1692 38.837 52.0666 38.9151C51.9641 38.9933 51.8385 39.0352 51.7095 39.0343V39.0285Z" fill="white"/>
<path d="M35.456 54.752H28.893C28.341 54.7504 27.8123 54.5301 27.4225 54.1393C27.0328 53.7485 26.814 53.2191 26.814 52.6672V50.8619C26.814 50.7074 26.8753 50.5593 26.9845 50.4501C27.0937 50.3409 27.2419 50.2795 27.3963 50.2795H36.9585C37.113 50.2795 37.2611 50.3409 37.3703 50.4501C37.4795 50.5593 37.5409 50.7074 37.5409 50.8619V52.6672C37.5393 53.2196 37.3192 53.749 36.9285 54.1397C36.5379 54.5303 36.0085 54.7505 35.456 54.752ZM27.9495 51.4442V52.6672C27.9487 52.7902 27.9727 52.9122 28.0201 53.0257C28.0675 53.1393 28.1374 53.2421 28.2254 53.328C28.3135 53.4139 28.4181 53.4812 28.5328 53.5257C28.6475 53.5703 28.77 53.5912 28.893 53.5873H35.456C35.7001 53.5873 35.9341 53.4904 36.1067 53.3178C36.2792 53.1452 36.3762 52.9112 36.3762 52.6672V51.4442H27.9495Z" fill="white" stroke="white"/>
<path d="M32.16 51.4441C32.0055 51.4441 31.8574 51.3827 31.7482 51.2735C31.639 51.1643 31.5776 51.0162 31.5776 50.8617V24.9763C31.5776 24.8218 31.639 24.6737 31.7482 24.5645C31.8574 24.4553 32.0055 24.3939 32.16 24.3939C32.3144 24.3939 32.4626 24.4553 32.5718 24.5645C32.681 24.6737 32.7423 24.8218 32.7423 24.9763V50.8617C32.7423 51.0162 32.681 51.1643 32.5718 51.2735C32.4626 51.3827 32.3144 51.4441 32.16 51.4441Z" fill="white"/>
<path d="M33.6799 26.1527H32.16C32.0055 26.1527 31.8574 26.0913 31.7482 25.9821C31.639 25.8729 31.5776 25.7248 31.5776 25.5703C31.5868 24.4608 32.0337 23.3997 32.821 22.6178C33.6084 21.8359 34.6726 21.3964 35.7822 21.3949H37.3021C37.4566 21.3949 37.6047 21.4563 37.7139 21.5655C37.8231 21.6747 37.8845 21.8228 37.8845 21.9772C37.8753 23.0868 37.4284 24.1479 36.6411 24.9298C35.8537 25.7117 34.7895 26.1512 33.6799 26.1527ZM32.8006 24.988H33.6799C34.3811 24.9881 35.0609 24.7466 35.6049 24.3044C36.149 23.8621 36.5242 23.246 36.6674 22.5596H35.7822C35.0815 22.5587 34.4019 22.7999 33.8586 23.2424C33.3153 23.685 32.9415 24.3016 32.8006 24.988Z" fill="white"/>
<path d="M33.8546 33.5601H32.16C32.0055 33.5601 31.8574 33.4988 31.7482 33.3896C31.639 33.2804 31.5776 33.1322 31.5776 32.9778C31.5944 31.7594 32.0878 30.596 32.9521 29.7371C33.8165 28.8782 34.983 28.3921 36.2015 28.3831H37.8961C38.0506 28.3831 38.1987 28.4444 38.3079 28.5536C38.4171 28.6628 38.4785 28.811 38.4785 28.9654C38.4618 30.1838 37.9683 31.3472 37.104 32.2061C36.2396 33.0651 35.0731 33.5511 33.8546 33.5601ZM32.7889 32.3954H33.8546C34.6655 32.3905 35.4495 32.1037 36.0721 31.5842C36.6947 31.0646 37.1172 30.3447 37.2672 29.5478H36.2015C35.3906 29.5527 34.6067 29.8395 33.9841 30.3591C33.3614 30.8786 32.9389 31.5985 32.7889 32.3954Z" fill="white"/>
<path d="M34.0934 40.962H32.16C32.0055 40.962 31.8574 40.9007 31.7482 40.7915C31.639 40.6823 31.5776 40.5341 31.5776 40.3797C31.5807 39.005 32.1286 37.6876 33.1011 36.7162C34.0737 35.7447 35.3917 35.1983 36.7664 35.1968H38.694C38.8484 35.1968 38.9965 35.2581 39.1057 35.3673C39.2149 35.4766 39.2763 35.6247 39.2763 35.7791C39.2748 37.1532 38.7282 38.4706 37.7566 39.4423C36.7849 40.4139 35.4675 40.9605 34.0934 40.962ZM32.7831 39.7973H34.0934C35.0581 39.7965 35.9905 39.4492 36.7206 38.8185C37.4506 38.1878 37.9298 37.3159 38.0708 36.3615H36.7664C35.801 36.3621 34.8678 36.7093 34.1368 37.3398C33.4058 37.9704 32.9254 38.8425 32.7831 39.7973Z" fill="white"/>
<path d="M32.16 26.1527H30.6401C29.5305 26.1512 28.4663 25.7117 27.679 24.9298C26.8916 24.1479 26.4448 23.0868 26.4355 21.9772C26.4355 21.8228 26.4969 21.6747 26.6061 21.5655C26.7153 21.4563 26.8634 21.3949 27.0179 21.3949H28.5378C29.6525 21.3964 30.721 21.8399 31.5092 22.6281C32.2974 23.4163 32.7409 24.4848 32.7424 25.5995C32.7349 25.7488 32.6703 25.8896 32.5619 25.9926C32.4535 26.0955 32.3096 26.1529 32.16 26.1527ZM27.6585 22.5596C27.7994 23.246 28.1732 23.8626 28.7165 24.3052C29.2599 24.7477 29.9394 24.9889 30.6401 24.988H31.5195C31.3785 24.3016 31.0047 23.685 30.4614 23.2424C29.9181 22.7999 29.2386 22.5587 28.5378 22.5596H27.6585Z" fill="white"/>
<path d="M32.1603 33.5601H30.4657C29.2471 33.5511 28.0807 33.0651 27.2163 32.2061C26.352 31.3472 25.8585 30.1838 25.8418 28.9654C25.8418 28.811 25.9032 28.6628 26.0124 28.5536C26.1216 28.4444 26.2697 28.3831 26.4241 28.3831H28.1188C29.3423 28.3922 30.5131 28.8823 31.3782 29.7475C32.2434 30.6126 32.7335 31.7834 32.7426 33.0069C32.7352 33.1563 32.6705 33.297 32.5621 33.4C32.4537 33.503 32.3098 33.5603 32.1603 33.5601ZM27.0589 29.5478C27.1963 30.352 27.6135 31.0819 28.2369 31.6083C28.8603 32.1347 29.6497 32.4238 30.4657 32.4246H31.5314C31.3874 31.6223 30.9675 30.8956 30.3443 30.3703C29.7211 29.8449 28.9338 29.554 28.1188 29.5478H27.0589Z" fill="white"/>
<path d="M32.1598 40.962H30.2264C28.8523 40.9605 27.5349 40.4139 26.5632 39.4423C25.5915 38.4706 25.045 37.1532 25.0435 35.7791C25.0435 35.6247 25.1048 35.4766 25.214 35.3673C25.3232 35.2581 25.4714 35.1968 25.6258 35.1968H27.5592C28.9333 35.1983 30.2507 35.7449 31.2224 36.7165C32.194 37.6882 32.7406 39.0056 32.7421 40.3797C32.7421 40.5341 32.6808 40.6823 32.5716 40.7915C32.4623 40.9007 32.3142 40.962 32.1598 40.962ZM26.2489 36.3615C26.3899 37.3159 26.8691 38.1878 27.5992 38.8185C28.3293 39.4492 29.2616 39.7965 30.2264 39.7973H31.5367C31.3945 38.8435 30.915 37.9722 30.1852 37.3417C29.4553 36.7113 28.5236 36.3635 27.5592 36.3615H26.2489Z" fill="white"/>
</svg>
