<svg width="40" height="40" viewBox="0 0 40 40" fill="none" xmlns="http://www.w3.org/2000/svg">
<path d="M11.9207 5.87972C11.9207 5.515 12.2147 5.21934 12.5774 5.21934H22.5473C22.91 5.21934 23.204 5.515 23.204 5.87972C23.204 6.24443 22.91 6.54009 22.5473 6.54009H12.5774C12.2147 6.54009 11.9207 6.24443 11.9207 5.87972Z" fill="black"/>
<path d="M12.5774 8.27359C12.2147 8.27359 11.9207 8.56925 11.9207 8.93396C11.9207 9.29868 12.2147 9.59434 12.5774 9.59434H22.5473C22.91 9.59434 23.204 9.29868 23.204 8.93396C23.204 8.56925 22.91 8.27359 22.5473 8.27359H12.5774Z" fill="black"/>
<path fill-rule="evenodd" clip-rule="evenodd" d="M29.0962 29.1049C29.0973 29.1039 29.0984 29.103 29.0995 29.1021C29.146 29.0748 29.1864 29.0357 29.2158 28.9859L33.8364 21.1689C34.207 20.5419 34.002 19.7314 33.3784 19.3587L32.8104 19.0192C32.1868 18.6465 31.3809 18.8526 31.0102 19.4797L26.4735 27.1548C26.4461 27.2011 26.4271 27.2501 26.416 27.3C26.4053 27.3218 26.3967 27.3453 26.3907 27.3703L25.4546 31.2667C25.3811 31.5723 25.7338 31.7984 25.9783 31.6025L29.0962 29.1049ZM26.8616 29.6285L27.7631 28.9063L27.1322 28.5018L26.8616 29.6285ZM32.2232 20.0126L32.7912 20.3521C32.8692 20.3987 32.8948 20.5 32.8485 20.5784L28.6473 27.6858L27.797 27.1776L31.9981 20.0702C32.0445 19.9918 32.1452 19.966 32.2232 20.0126Z" fill="black"/>
<path fill-rule="evenodd" clip-rule="evenodd" d="M5.84763 15.3726C5.57561 15.3726 5.35509 15.5944 5.35509 15.8679V20.8208C5.35509 21.0943 5.57561 21.316 5.84763 21.316H20.8772C21.1492 21.316 21.3697 21.0943 21.3697 20.8208V15.8679C21.3697 15.5944 21.1492 15.3726 20.8772 15.3726H5.84763ZM6.66853 16.6934V19.9953H20.0563V16.6934H6.66853Z" fill="black"/>
<path fill-rule="evenodd" clip-rule="evenodd" d="M5.35509 23.1321C5.35509 22.8585 5.57561 22.6368 5.84763 22.6368H7.68867C7.96069 22.6368 8.18121 22.8585 8.18121 23.1321V24.9481C8.18121 25.2217 7.96069 25.4434 7.68867 25.4434H5.84763C5.57561 25.4434 5.35509 25.2217 5.35509 24.9481V23.1321ZM6.34017 24.4528V23.6274H7.19613V24.4528H6.34017Z" fill="black"/>
<path fill-rule="evenodd" clip-rule="evenodd" d="M5.84763 27.0943C5.57561 27.0943 5.35509 27.3161 5.35509 27.5896V29.4057C5.35509 29.6792 5.57561 29.9009 5.84763 29.9009H7.68867C7.96069 29.9009 8.18121 29.6792 8.18121 29.4057V27.5896C8.18121 27.3161 7.96069 27.0943 7.68867 27.0943H5.84763ZM6.34017 28.0849V28.9104H7.19613V28.0849H6.34017Z" fill="black"/>
<path fill-rule="evenodd" clip-rule="evenodd" d="M5.35509 31.717C5.35509 31.4434 5.57561 31.2217 5.84763 31.2217H7.68867C7.96069 31.2217 8.18121 31.4434 8.18121 31.717V33.533C8.18121 33.8066 7.96069 34.0283 7.68867 34.0283H5.84763C5.57561 34.0283 5.35509 33.8066 5.35509 33.533V31.717ZM6.34017 33.0377V32.2123H7.19613V33.0377H6.34017Z" fill="black"/>
<path fill-rule="evenodd" clip-rule="evenodd" d="M10.2438 22.6368C9.97178 22.6368 9.75127 22.8585 9.75127 23.1321V24.9481C9.75127 25.2217 9.97178 25.4434 10.2438 25.4434H12.0848C12.3569 25.4434 12.5774 25.2217 12.5774 24.9481V23.1321C12.5774 22.8585 12.3569 22.6368 12.0848 22.6368H10.2438ZM10.7363 23.6274V24.4528H11.5923V23.6274H10.7363Z" fill="black"/>
<path fill-rule="evenodd" clip-rule="evenodd" d="M9.75127 27.5896C9.75127 27.3161 9.97178 27.0943 10.2438 27.0943H12.0848C12.3569 27.0943 12.5774 27.3161 12.5774 27.5896V29.4057C12.5774 29.6792 12.3569 29.9009 12.0848 29.9009H10.2438C9.97178 29.9009 9.75127 29.6792 9.75127 29.4057V27.5896ZM10.7363 28.9104V28.0849H11.5923V28.9104H10.7363Z" fill="black"/>
<path fill-rule="evenodd" clip-rule="evenodd" d="M10.2438 31.2217C9.97178 31.2217 9.75127 31.4434 9.75127 31.717V33.533C9.75127 33.8066 9.97178 34.0283 10.2438 34.0283H12.0848C12.3569 34.0283 12.5774 33.8066 12.5774 33.533V31.717C12.5774 31.4434 12.3569 31.2217 12.0848 31.2217H10.2438ZM10.7363 32.2123V33.0377H11.5923V32.2123H10.7363Z" fill="black"/>
<path fill-rule="evenodd" clip-rule="evenodd" d="M14.1474 23.1321C14.1474 22.8585 14.368 22.6368 14.64 22.6368H16.481C16.753 22.6368 16.9736 22.8585 16.9736 23.1321V24.9481C16.9736 25.2217 16.753 25.4434 16.481 25.4434H14.64C14.368 25.4434 14.1474 25.2217 14.1474 24.9481V23.1321ZM15.1325 24.4528V23.6274H15.9885V24.4528H15.1325Z" fill="black"/>
<path fill-rule="evenodd" clip-rule="evenodd" d="M14.64 27.0943C14.368 27.0943 14.1474 27.3161 14.1474 27.5896V29.4057C14.1474 29.6792 14.368 29.9009 14.64 29.9009H16.481C16.753 29.9009 16.9736 29.6792 16.9736 29.4057V27.5896C16.9736 27.3161 16.753 27.0943 16.481 27.0943H14.64ZM15.1325 28.0849V28.9104H15.9885V28.0849H15.1325Z" fill="black"/>
<path fill-rule="evenodd" clip-rule="evenodd" d="M14.1474 31.717C14.1474 31.4434 14.368 31.2217 14.64 31.2217H16.481C16.753 31.2217 16.9736 31.4434 16.9736 31.717V33.533C16.9736 33.8066 16.753 34.0283 16.481 34.0283H14.64C14.368 34.0283 14.1474 33.8066 14.1474 33.533V31.717ZM15.1325 33.0377V32.2123H15.9885V33.0377H15.1325Z" fill="black"/>
<path fill-rule="evenodd" clip-rule="evenodd" d="M19.0362 22.6368C18.7641 22.6368 18.5436 22.8585 18.5436 23.1321V24.9481C18.5436 25.2217 18.7641 25.4434 19.0362 25.4434H20.8772C21.1492 25.4434 21.3697 25.2217 21.3697 24.9481V23.1321C21.3697 22.8585 21.1492 22.6368 20.8772 22.6368H19.0362ZM19.5287 23.6274V24.4528H20.3847V23.6274H19.5287Z" fill="black"/>
<path fill-rule="evenodd" clip-rule="evenodd" d="M18.5436 27.5896C18.5436 27.3161 18.7641 27.0943 19.0362 27.0943H20.8772C21.1492 27.0943 21.3697 27.3161 21.3697 27.5896V33.6981C21.3697 33.9717 21.1492 34.1934 20.8772 34.1934H19.0362C18.7641 34.1934 18.5436 33.9717 18.5436 33.6981V27.5896ZM19.5287 33.2028V28.0849H20.3847V33.2028H19.5287Z" fill="black"/>
<path fill-rule="evenodd" clip-rule="evenodd" d="M8.78054 3.32076C8.78054 2.59132 9.36858 2 10.094 2H26.3086C26.6532 2 26.9841 2.13622 27.2298 2.37927L35.6077 10.668C35.8587 10.9163 36 11.2555 36 11.6095V35.6792C36 36.4087 35.412 37 34.6866 37H22.9773C22.9402 37 22.9039 36.9969 22.8686 36.991C22.8289 36.9969 22.7883 37 22.7469 37H3.8209C3.36753 37 3 36.6304 3 36.1745V13.8868C3 13.4309 3.36753 13.0613 3.8209 13.0613H8.78054V3.32076ZM34.6866 35.6792H23.5678V13.8868C23.5678 13.4309 23.2003 13.0613 22.7469 13.0613H10.094V3.32076L25.8157 3.32075V10.9151C25.8157 11.6445 26.4038 12.2358 27.1291 12.2358H34.6866V35.6792ZM33.9847 10.9151H27.1291V4.13256L33.9847 10.9151ZM4.31343 14.3821V35.6792H22.2544V14.3821H4.31343Z" fill="black"/>
</svg>
