<svg width="33" height="33" viewBox="0 0 33 33" fill="none" xmlns="http://www.w3.org/2000/svg">
<path d="M12.8969 16.9425C11.603 16.1677 10.5987 14.9895 10.038 13.5885C9.47723 12.1874 9.39096 10.6409 9.79242 9.1861C10.1939 7.73126 11.0609 6.44841 12.2605 5.53423C13.4602 4.62004 14.9262 4.125 16.4338 4.125C17.9415 4.125 19.4075 4.62004 20.6072 5.53423C21.8068 6.44841 22.6738 7.73126 23.0753 9.1861C23.4767 10.6409 23.3905 12.1874 22.8297 13.5885C22.269 14.9895 21.2647 16.1677 19.9708 16.9425C20.804 17.2127 21.6034 17.5779 22.3533 18.0309C22.4428 18.0811 22.5213 18.1488 22.5841 18.2299C22.647 18.3111 22.6929 18.4041 22.7191 18.5033C22.7454 18.6026 22.7515 18.7062 22.737 18.8078C22.7225 18.9095 22.6877 19.0072 22.6347 19.0952C22.5818 19.1831 22.5117 19.2595 22.4287 19.3198C22.3456 19.3801 22.2513 19.4231 22.1514 19.4462C22.0514 19.4694 21.9479 19.4721 21.8468 19.4544C21.7458 19.4367 21.6493 19.3988 21.5632 19.343C20.0531 18.4338 18.3289 17.9423 16.5668 17.9187C14.8048 17.8951 13.0681 18.3403 11.5342 19.2088C10.0004 20.0773 8.72436 21.3379 7.83659 22.8619C6.94882 24.3858 6.48114 26.1184 6.48135 27.8825C6.48135 28.0858 6.40069 28.2808 6.25712 28.4245C6.11354 28.5682 5.91882 28.649 5.71577 28.649C5.51273 28.649 5.318 28.5682 5.17443 28.4245C5.03085 28.2808 4.9502 28.0858 4.9502 27.8825C4.95038 25.4524 5.71948 23.0847 7.14714 21.1193C8.57481 19.1539 10.5877 17.6917 12.8969 16.9425ZM16.4338 16.3861C17.8552 16.3861 19.2182 15.8209 20.2233 14.8147C21.2283 13.8086 21.7929 12.444 21.7929 11.0211C21.7929 9.59821 21.2283 8.2336 20.2233 7.22747C19.2182 6.22134 17.8552 5.6561 16.4338 5.6561C15.0125 5.6561 13.6494 6.22134 12.6444 7.22747C11.6394 8.2336 11.0748 9.59821 11.0748 11.0211C11.0748 12.444 11.6394 13.8086 12.6444 14.8147C13.6494 15.8209 15.0125 16.3861 16.4338 16.3861ZM20.2617 20.2183H27.9175C28.1205 20.2183 28.3153 20.299 28.4588 20.4427C28.6024 20.5865 28.6831 20.7814 28.6831 20.9847C28.6831 21.188 28.6024 21.3829 28.4588 21.5266C28.3153 21.6704 28.1205 21.7511 27.9175 21.7511H20.2617C20.0587 21.7511 19.864 21.6704 19.7204 21.5266C19.5768 21.3829 19.4962 21.188 19.4962 20.9847C19.4962 20.7814 19.5768 20.5865 19.7204 20.4427C19.864 20.299 20.0587 20.2183 20.2617 20.2183ZM20.2617 23.284H27.9175C28.1205 23.284 28.3153 23.3647 28.4588 23.5084C28.6024 23.6522 28.6831 23.8471 28.6831 24.0504C28.6831 24.2537 28.6024 24.4486 28.4588 24.5923C28.3153 24.7361 28.1205 24.8168 27.9175 24.8168H20.2617C20.0587 24.8168 19.864 24.7361 19.7204 24.5923C19.5768 24.4486 19.4962 24.2537 19.4962 24.0504C19.4962 23.8471 19.5768 23.6522 19.7204 23.5084C19.864 23.3647 20.0587 23.284 20.2617 23.284ZM20.2617 26.3497H27.9175C28.1205 26.3497 28.3153 26.4304 28.4588 26.5742C28.6024 26.7179 28.6831 26.9128 28.6831 27.1161C28.6831 27.3194 28.6024 27.5143 28.4588 27.6581C28.3153 27.8018 28.1205 27.8825 27.9175 27.8825H20.2617C20.0587 27.8825 19.864 27.8018 19.7204 27.6581C19.5768 27.5143 19.4962 27.3194 19.4962 27.1161C19.4962 26.9128 19.5768 26.7179 19.7204 26.5742C19.864 26.4304 20.0587 26.3497 20.2617 26.3497Z" fill="white"/>
</svg>
