<svg width="238" height="35" viewBox="0 0 238 35" fill="none" xmlns="http://www.w3.org/2000/svg">
<path d="M42.917 4.9H44.204V11.92L49.586 4.9H50.782V14H49.508V6.993L44.113 14H42.917V4.9ZM60.8601 4.9V14H59.5601V9.944H54.3341V14H53.0341V4.9H54.3341V8.813H59.5601V4.9H60.8601ZM68.7812 9.281C69.3965 9.42833 69.8602 9.69267 70.1722 10.074C70.4929 10.4467 70.6532 10.9277 70.6532 11.517C70.6532 12.3057 70.3629 12.9167 69.7822 13.35C69.2102 13.7833 68.3739 14 67.2732 14H63.1132V4.9H67.0262C68.0229 4.9 68.7985 5.10367 69.3532 5.511C69.9165 5.90967 70.1982 6.486 70.1982 7.24C70.1982 7.734 70.0725 8.15433 69.8212 8.501C69.5785 8.84767 69.2319 9.10767 68.7812 9.281ZM64.4002 8.904H66.9352C67.5679 8.904 68.0489 8.77833 68.3782 8.527C68.7162 8.27567 68.8852 7.90733 68.8852 7.422C68.8852 6.93667 68.7162 6.56833 68.3782 6.317C68.0402 6.057 67.5592 5.927 66.9352 5.927H64.4002V8.904ZM67.2472 12.973C68.6425 12.973 69.3402 12.453 69.3402 11.413C69.3402 10.893 69.1625 10.5117 68.8072 10.269C68.4605 10.0177 67.9405 9.892 67.2472 9.892H64.4002V12.973H67.2472ZM78.8441 12.869V14H72.2401V4.9H78.6621V6.031H73.5401V8.826H78.1031V9.931H73.5401V12.869H78.8441ZM84.3315 14.104C83.4215 14.104 82.5982 13.9047 81.8615 13.506C81.1335 13.0987 80.5615 12.544 80.1455 11.842C79.7295 11.1313 79.5215 10.334 79.5215 9.45C79.5215 8.566 79.7295 7.773 80.1455 7.071C80.5615 6.36033 81.1379 5.80567 81.8745 5.407C82.6112 4.99967 83.4345 4.796 84.3445 4.796C85.0552 4.796 85.7052 4.91733 86.2945 5.16C86.8839 5.394 87.3865 5.745 87.8025 6.213L86.9575 7.032C86.2729 6.31267 85.4192 5.953 84.3965 5.953C83.7205 5.953 83.1095 6.10467 82.5635 6.408C82.0175 6.71133 81.5885 7.13167 81.2765 7.669C80.9732 8.19767 80.8215 8.79133 80.8215 9.45C80.8215 10.1087 80.9732 10.7067 81.2765 11.244C81.5885 11.7727 82.0175 12.1887 82.5635 12.492C83.1095 12.7953 83.7205 12.947 84.3965 12.947C85.4105 12.947 86.2642 12.583 86.9575 11.855L87.8025 12.674C87.3865 13.142 86.8795 13.4973 86.2815 13.74C85.6922 13.9827 85.0422 14.104 84.3315 14.104ZM95.16 6.031H92.04V14H90.766V6.031H87.659V4.9H95.16V6.031ZM96.155 4.9H97.442V11.92L102.824 4.9H104.02V14H102.746V6.993L97.351 14H96.155V4.9ZM115.32 12.869V16.067H114.111V14H106.272V4.9H107.559V12.869H112.629V4.9H113.916V12.869H115.32ZM116.466 4.9H117.753V11.92L123.135 4.9H124.331V14H123.057V6.993L117.662 14H116.466V4.9ZM130.678 14.104C129.759 14.104 128.931 13.9047 128.195 13.506C127.458 13.0987 126.877 12.5397 126.453 11.829C126.037 11.1183 125.829 10.3253 125.829 9.45C125.829 8.57467 126.037 7.78167 126.453 7.071C126.877 6.36033 127.458 5.80567 128.195 5.407C128.931 4.99967 129.759 4.796 130.678 4.796C131.588 4.796 132.411 4.99967 133.148 5.407C133.884 5.80567 134.461 6.36033 134.877 7.071C135.293 7.773 135.501 8.566 135.501 9.45C135.501 10.334 135.293 11.1313 134.877 11.842C134.461 12.544 133.884 13.0987 133.148 13.506C132.411 13.9047 131.588 14.104 130.678 14.104ZM130.678 12.947C131.345 12.947 131.943 12.7953 132.472 12.492C133.009 12.1887 133.429 11.7727 133.733 11.244C134.045 10.7067 134.201 10.1087 134.201 9.45C134.201 8.79133 134.045 8.19767 133.733 7.669C133.429 7.13167 133.009 6.71133 132.472 6.408C131.943 6.10467 131.345 5.953 130.678 5.953C130.01 5.953 129.404 6.10467 128.858 6.408C128.32 6.71133 127.896 7.13167 127.584 7.669C127.28 8.19767 127.129 8.79133 127.129 9.45C127.129 10.1087 127.28 10.7067 127.584 11.244C127.896 11.7727 128.32 12.1887 128.858 12.492C129.404 12.7953 130.01 12.947 130.678 12.947ZM144.843 4.9V14H143.543V9.944H138.317V14H137.017V4.9H138.317V8.813H143.543V4.9H144.843ZM154.922 4.9V14H153.622V9.944H148.396V14H147.096V4.9H148.396V8.813H153.622V4.9H154.922ZM161.166 8.072C162.25 8.072 163.077 8.31467 163.649 8.8C164.23 9.28533 164.52 10.0003 164.52 10.945C164.52 11.9417 164.208 12.7 163.584 13.22C162.969 13.74 162.085 14 160.932 14H157.175V4.9H158.462V8.072H161.166ZM160.88 12.973C161.634 12.973 162.211 12.804 162.609 12.466C163.017 12.1193 163.22 11.621 163.22 10.971C163.22 9.723 162.44 9.099 160.88 9.099H158.462V12.973H160.88ZM165.963 4.9H167.25V14H165.963V4.9ZM169.501 4.9H170.788V11.92L176.17 4.9H177.366V14H176.092V6.993L170.697 14H169.501V4.9ZM173.414 4.263C172.704 4.263 172.153 4.11133 171.763 3.808C171.382 3.496 171.187 3.054 171.178 2.482H172.101C172.11 2.82 172.227 3.08433 172.452 3.275C172.686 3.457 173.007 3.548 173.414 3.548C173.804 3.548 174.116 3.457 174.35 3.275C174.593 3.08433 174.719 2.82 174.727 2.482H175.637C175.629 3.04533 175.429 3.483 175.039 3.795C174.658 4.107 174.116 4.263 173.414 4.263ZM190.364 4.9V14H189.09V6.031H183.812V14H182.525V4.9H190.364ZM196.712 14.104C195.793 14.104 194.965 13.9047 194.229 13.506C193.492 13.0987 192.911 12.5397 192.487 11.829C192.071 11.1183 191.863 10.3253 191.863 9.45C191.863 8.57467 192.071 7.78167 192.487 7.071C192.911 6.36033 193.492 5.80567 194.229 5.407C194.965 4.99967 195.793 4.796 196.712 4.796C197.622 4.796 198.445 4.99967 199.182 5.407C199.918 5.80567 200.495 6.36033 200.911 7.071C201.327 7.773 201.535 8.566 201.535 9.45C201.535 10.334 201.327 11.1313 200.911 11.842C200.495 12.544 199.918 13.0987 199.182 13.506C198.445 13.9047 197.622 14.104 196.712 14.104ZM196.712 12.947C197.379 12.947 197.977 12.7953 198.506 12.492C199.043 12.1887 199.463 11.7727 199.767 11.244C200.079 10.7067 200.235 10.1087 200.235 9.45C200.235 8.79133 200.079 8.19767 199.767 7.669C199.463 7.13167 199.043 6.71133 198.506 6.408C197.977 6.10467 197.379 5.953 196.712 5.953C196.044 5.953 195.438 6.10467 194.892 6.408C194.354 6.71133 193.93 7.13167 193.618 7.669C193.314 8.19767 193.163 8.79133 193.163 9.45C193.163 10.1087 193.314 10.7067 193.618 11.244C193.93 11.7727 194.354 12.1887 194.892 12.492C195.438 12.7953 196.044 12.947 196.712 12.947ZM206.6 4.9C207.779 4.9 208.706 5.18167 209.382 5.745C210.058 6.30833 210.396 7.084 210.396 8.072C210.396 9.06 210.058 9.83567 209.382 10.399C208.706 10.9623 207.779 11.244 206.6 11.244H204.351V14H203.051V4.9H206.6ZM206.561 10.113C207.384 10.113 208.013 9.93967 208.446 9.593C208.879 9.23767 209.096 8.73067 209.096 8.072C209.096 7.41333 208.879 6.91067 208.446 6.564C208.013 6.20867 207.384 6.031 206.561 6.031H204.351V10.113H206.561ZM217.58 6.031H214.46V14H213.186V6.031H210.079V4.9H217.58V6.031ZM224.033 11.725H219.197L218.196 14H216.857L220.978 4.9H222.265L226.399 14H225.034L224.033 11.725ZM223.578 10.685L221.615 6.226L219.652 10.685H223.578ZM234.859 4.9V14H233.585V6.031H229.555L229.464 8.696C229.421 9.95267 229.317 10.971 229.152 11.751C228.996 12.531 228.745 13.1203 228.398 13.519C228.051 13.909 227.583 14.104 226.994 14.104C226.725 14.104 226.452 14.0693 226.175 14L226.266 12.843C226.405 12.8777 226.543 12.895 226.682 12.895C227.055 12.895 227.354 12.7477 227.579 12.453C227.804 12.1497 227.973 11.699 228.086 11.101C228.199 10.503 228.272 9.71433 228.307 8.735L228.45 4.9H234.859Z" fill="black"/>
<path d="M47.407 26.347H45.559V31H42.9025V19.45H45.559V24.1195H47.473L50.509 19.45H53.3305L49.552 25.027L53.446 31H50.41L47.407 26.347ZM66.4907 19.45L61.5737 28.591C61.1007 29.471 60.5287 30.1365 59.8577 30.5875C59.1977 31.0385 58.4772 31.264 57.6962 31.264C57.0912 31.264 56.4642 31.132 55.8152 30.868L56.4587 28.8385C56.9207 28.9815 57.3057 29.053 57.6137 29.053C57.9437 29.053 58.2407 28.976 58.5047 28.822C58.7687 28.657 59.0107 28.404 59.2307 28.063L59.3297 27.931L54.7757 19.45H57.6302L60.6992 25.654L63.8672 19.45H66.4907ZM73.9154 19.45C74.9384 19.45 75.8239 19.6205 76.5719 19.9615C77.3309 20.3025 77.9139 20.7865 78.3209 21.4135C78.7279 22.0405 78.9314 22.783 78.9314 23.641C78.9314 24.488 78.7279 25.2305 78.3209 25.8685C77.9139 26.4955 77.3309 26.9795 76.5719 27.3205C75.8239 27.6505 74.9384 27.8155 73.9154 27.8155H71.5889V31H68.9159V19.45H73.9154ZM73.7669 25.6375C74.5699 25.6375 75.1804 25.467 75.5984 25.126C76.0164 24.774 76.2254 24.279 76.2254 23.641C76.2254 22.992 76.0164 22.497 75.5984 22.156C75.1804 21.804 74.5699 21.628 73.7669 21.628H71.5889V25.6375H73.7669ZM87.4724 31.198C86.2954 31.198 85.2284 30.945 84.2714 30.439C83.3254 29.922 82.5774 29.2125 82.0274 28.3105C81.4884 27.3975 81.2189 26.369 81.2189 25.225C81.2189 24.081 81.4884 23.058 82.0274 22.156C82.5774 21.243 83.3254 20.5335 84.2714 20.0275C85.2284 19.5105 86.3009 19.252 87.4889 19.252C88.4899 19.252 89.3919 19.428 90.1949 19.78C91.0089 20.132 91.6909 20.638 92.2409 21.298L90.5249 22.882C89.7439 21.98 88.7759 21.529 87.6209 21.529C86.9059 21.529 86.2679 21.6885 85.7069 22.0075C85.1459 22.3155 84.7059 22.75 84.3869 23.311C84.0789 23.872 83.9249 24.51 83.9249 25.225C83.9249 25.94 84.0789 26.578 84.3869 27.139C84.7059 27.7 85.1459 28.14 85.7069 28.459C86.2679 28.767 86.9059 28.921 87.6209 28.921C88.7759 28.921 89.7439 28.4645 90.5249 27.5515L92.2409 29.1355C91.6909 29.8065 91.0089 30.318 90.1949 30.67C89.3809 31.022 88.4734 31.198 87.4724 31.198ZM99.6095 26.347H97.7615V31H95.105V19.45H97.7615V24.1195H99.6755L102.712 19.45H105.533L101.755 25.027L105.649 31H102.613L99.6095 26.347ZM113.518 31.198C112.319 31.198 111.236 30.9395 110.268 30.4225C109.311 29.9055 108.557 29.196 108.007 28.294C107.468 27.381 107.199 26.358 107.199 25.225C107.199 24.092 107.468 23.0745 108.007 22.1725C108.557 21.2595 109.311 20.5445 110.268 20.0275C111.236 19.5105 112.319 19.252 113.518 19.252C114.717 19.252 115.795 19.5105 116.752 20.0275C117.709 20.5445 118.463 21.2595 119.013 22.1725C119.563 23.0745 119.838 24.092 119.838 25.225C119.838 26.358 119.563 27.381 119.013 28.294C118.463 29.196 117.709 29.9055 116.752 30.4225C115.795 30.9395 114.717 31.198 113.518 31.198ZM113.518 28.921C114.2 28.921 114.816 28.767 115.366 28.459C115.916 28.14 116.345 27.7 116.653 27.139C116.972 26.578 117.132 25.94 117.132 25.225C117.132 24.51 116.972 23.872 116.653 23.311C116.345 22.75 115.916 22.3155 115.366 22.0075C114.816 21.6885 114.2 21.529 113.518 21.529C112.836 21.529 112.22 21.6885 111.67 22.0075C111.12 22.3155 110.686 22.75 110.367 23.311C110.059 23.872 109.905 24.51 109.905 25.225C109.905 25.94 110.059 26.578 110.367 27.139C110.686 27.7 111.12 28.14 111.67 28.459C112.22 28.767 112.836 28.921 113.518 28.921ZM123.052 19.45H125.709V26.974L131.22 19.45H133.728V31H131.088V23.4925L125.577 31H123.052V19.45ZM128.382 18.7075C126.27 18.7075 125.203 17.866 125.181 16.183H127.012C127.034 16.986 127.491 17.3875 128.382 17.3875C128.822 17.3875 129.157 17.2885 129.388 17.0905C129.619 16.8815 129.74 16.579 129.751 16.183H131.583C131.572 17.008 131.302 17.635 130.774 18.064C130.246 18.493 129.449 18.7075 128.382 18.7075ZM149.097 31.198C147.898 31.198 146.815 30.9395 145.847 30.4225C144.89 29.9055 144.136 29.196 143.586 28.294C143.047 27.381 142.778 26.358 142.778 25.225C142.778 24.092 143.047 23.0745 143.586 22.1725C144.136 21.2595 144.89 20.5445 145.847 20.0275C146.815 19.5105 147.898 19.252 149.097 19.252C150.296 19.252 151.374 19.5105 152.331 20.0275C153.288 20.5445 154.042 21.2595 154.592 22.1725C155.142 23.0745 155.417 24.092 155.417 25.225C155.417 26.358 155.142 27.381 154.592 28.294C154.042 29.196 153.288 29.9055 152.331 30.4225C151.374 30.9395 150.296 31.198 149.097 31.198ZM149.097 28.921C149.779 28.921 150.395 28.767 150.945 28.459C151.495 28.14 151.924 27.7 152.232 27.139C152.551 26.578 152.711 25.94 152.711 25.225C152.711 24.51 152.551 23.872 152.232 23.311C151.924 22.75 151.495 22.3155 150.945 22.0075C150.395 21.6885 149.779 21.529 149.097 21.529C148.415 21.529 147.799 21.6885 147.249 22.0075C146.699 22.3155 146.265 22.75 145.946 23.311C145.638 23.872 145.484 24.51 145.484 25.225C145.484 25.94 145.638 26.578 145.946 27.139C146.265 27.7 146.699 28.14 147.249 28.459C147.799 28.767 148.415 28.921 149.097 28.921ZM158.631 19.45H167.953V21.5785H161.287V23.9545H164.488C165.885 23.9545 166.947 24.246 167.673 24.829C168.41 25.412 168.778 26.2535 168.778 27.3535C168.778 28.5085 168.371 29.405 167.557 30.043C166.743 30.681 165.594 31 164.109 31H158.631V19.45ZM163.96 29.02C164.642 29.02 165.165 28.888 165.528 28.624C165.891 28.349 166.072 27.953 166.072 27.436C166.072 26.424 165.368 25.918 163.96 25.918H161.287V29.02H163.96ZM181.99 19.45V31H179.35V21.628H175.39L175.307 24.037C175.252 25.676 175.12 27.007 174.911 28.03C174.702 29.042 174.35 29.823 173.855 30.373C173.371 30.912 172.689 31.1815 171.809 31.1815C171.446 31.1815 171.006 31.121 170.489 31L170.654 28.7395C170.797 28.7835 170.957 28.8055 171.133 28.8055C171.771 28.8055 172.216 28.4315 172.469 27.6835C172.722 26.9245 172.882 25.742 172.948 24.136L173.113 19.45H181.99ZM193.85 28.525H188.488L187.465 31H184.726L189.874 19.45H192.514L197.678 31H194.873L193.85 28.525ZM193.009 26.4955L191.177 22.0735L189.346 26.4955H193.009ZM205.665 31.198C204.488 31.198 203.421 30.945 202.464 30.439C201.518 29.922 200.77 29.2125 200.22 28.3105C199.681 27.3975 199.412 26.369 199.412 25.225C199.412 24.081 199.681 23.058 200.22 22.156C200.77 21.243 201.518 20.5335 202.464 20.0275C203.421 19.5105 204.494 19.252 205.682 19.252C206.683 19.252 207.585 19.428 208.388 19.78C209.202 20.132 209.884 20.638 210.434 21.298L208.718 22.882C207.937 21.98 206.969 21.529 205.814 21.529C205.099 21.529 204.461 21.6885 203.9 22.0075C203.339 22.3155 202.899 22.75 202.58 23.311C202.272 23.872 202.118 24.51 202.118 25.225C202.118 25.94 202.272 26.578 202.58 27.139C202.899 27.7 203.339 28.14 203.9 28.459C204.461 28.767 205.099 28.921 205.814 28.921C206.969 28.921 207.937 28.4645 208.718 27.5515L210.434 29.1355C209.884 29.8065 209.202 30.318 208.388 30.67C207.574 31.022 206.666 31.198 205.665 31.198ZM222.046 21.628H218.35V31H215.71V21.628H212.03V19.45H222.046V21.628ZM224.879 19.45H227.535V26.974L233.046 19.45H235.554V31H232.914V23.4925L227.403 31H224.879V19.45Z" fill="black"/>
<path d="M1 10.5L0.278751 9.18478L1 12V10.5ZM16.5 2L17.2212 0.684781L16.5 0.289258L15.7788 0.684781L16.5 2ZM32 10.5V12L32.7212 9.18478L32 10.5ZM1.72125 11.8152L17.2212 3.31522L15.7788 0.684781L0.278751 9.18478L1.72125 11.8152ZM15.7788 3.31522L31.2788 11.8152L32.7212 9.18478L17.2212 0.684781L15.7788 3.31522ZM32 9H1V12H32V9Z" fill="black"/>
<path d="M1 32.5H32.5M6.5 15V28M16.5 15V28M26.5 15V28" stroke="black" stroke-width="3"/>
</svg>
