<svg width="33" height="33" viewBox="0 0 33 33" fill="none" xmlns="http://www.w3.org/2000/svg">
<path fill-rule="evenodd" clip-rule="evenodd" d="M20.2608 21.5737C18.7571 22.7893 16.8429 23.5173 14.7586 23.5173C9.92137 23.5173 6 19.5959 6 14.7586C6 9.92137 9.92137 6 14.7586 6C19.5959 6 23.5173 9.92137 23.5173 14.7586C23.5173 16.8429 22.7893 18.7571 21.5737 20.2608C21.555 20.284 21.5362 20.307 21.5172 20.3299C21.1413 20.7854 20.7202 21.2024 20.2608 21.5737ZM21.6404 14.7586C21.6404 18.5593 18.5593 21.6404 14.7586 21.6404C10.9579 21.6404 7.87685 18.5593 7.87685 14.7586C7.87685 10.9579 10.9579 7.87685 14.7586 7.87685C18.5593 7.87685 21.6404 10.9579 21.6404 14.7586Z" fill="white"/>
<path d="M25.3562 26.6833L21.5864 22.9134C22.0667 22.5108 22.511 22.0666 22.9135 21.5863L26.6834 25.3561C27.0498 25.7226 27.0498 26.3168 26.6834 26.6833C26.3169 27.0497 25.7227 27.0497 25.3562 26.6833Z" fill="white"/>
</svg>
