<svg width="40" height="40" viewBox="0 0 40 40" fill="none" xmlns="http://www.w3.org/2000/svg">
<path fill-rule="evenodd" clip-rule="evenodd" d="M19.5476 13.1189C21.5437 13.1189 23.162 11.516 23.162 9.5386C23.162 7.56124 21.5437 5.95828 19.5476 5.95828C17.5514 5.95828 15.9332 7.56124 15.9332 9.5386C15.9332 11.516 17.5514 13.1189 19.5476 13.1189ZM19.5476 11.6114C20.7032 11.6114 21.6401 10.6834 21.6401 9.5386C21.6401 8.39382 20.7032 7.46578 19.5476 7.46578C18.3919 7.46578 17.455 8.39382 17.455 9.5386C17.455 10.6834 18.3919 11.6114 19.5476 11.6114Z" fill="black"/>
<path fill-rule="evenodd" clip-rule="evenodd" d="M27.6257 10.8792C27.8442 9.3584 27.5846 7.09008 26.3189 5.21427C25.0174 3.28543 22.7085 1.85783 19.0408 2.0113C17.2379 2.08674 15.8219 2.54206 14.7281 3.25117C13.6342 3.96033 12.9032 4.89707 12.4299 5.87348C11.4973 7.79711 11.5478 9.90427 11.7642 10.9275C11.774 10.9738 11.7838 11.0215 11.7941 11.0709C11.9268 11.7125 12.1171 12.6326 12.9338 14.3278C13.8005 16.1268 15.3709 18.7982 18.3268 22.9882C18.9137 23.8203 20.1658 23.8587 20.7808 23.0126C22.0657 21.2449 23.6818 18.7934 25.0165 16.5191C25.6838 15.382 26.2864 14.2797 26.7433 13.3232C27.1887 12.3908 27.5334 11.5216 27.6257 10.8792ZM19.105 3.51746C22.2796 3.38463 24.0674 4.5904 25.0536 6.05197C26.0756 7.56657 26.2945 9.44571 26.119 10.6668C26.0622 11.0622 25.8112 11.75 25.3677 12.6784C24.9357 13.5827 24.356 14.6451 23.7008 15.7615C22.3965 17.984 20.8157 20.3827 19.5627 22.1084C16.6373 17.9603 15.122 15.3697 14.3073 13.6785C13.5679 12.1438 13.4048 11.3513 13.2842 10.7654L13.2841 10.7649C13.2738 10.7147 13.2638 10.666 13.2537 10.6185C13.0896 9.84201 13.0454 8.08614 13.8017 6.52604C14.1728 5.76058 14.732 5.05028 15.5615 4.51254C16.391 3.97475 17.5313 3.58331 19.105 3.51746Z" fill="black"/>
<path d="M38 10.6368C38 9.48482 36.7484 8.75852 35.734 9.32186L27.5544 13.8641C27.1878 14.0677 27.0572 14.5271 27.2627 14.8902C27.4682 15.2533 27.932 15.3827 28.2986 15.1791L36.4781 10.6368V30.1663L27.7275 35.4396V17.2646C27.7275 16.8483 27.3868 16.5108 26.9666 16.5108C26.5463 16.5108 26.2057 16.8483 26.2057 17.2646V36.3568L26.0728 36.4368L12.2236 30.7955L12.2237 30.7886V16.9819C12.2237 16.5656 11.883 16.2282 11.4627 16.2282C11.0425 16.2282 10.7018 16.5656 10.7018 16.9819V30.7886L2.52185 35.7933L2.52185 16.374L10.1398 11.8822C10.501 11.6693 10.6195 11.2067 10.4045 10.849C10.1896 10.4913 9.72256 10.3739 9.36144 10.5869L1.74345 15.0786C1.28246 15.3504 1 15.8426 1 16.374V35.7933C1 36.9738 2.30768 37.6962 3.32157 37.0759L11.4425 32.1073L25.6269 37.8852C26.312 38.1643 27.0429 37.911 27.4362 37.3797L37.2691 31.4542C37.723 31.1807 38 30.6925 38 30.1663V10.6368Z" fill="black"/>
</svg>
