<svg width="63" height="63" viewBox="0 0 63 63" fill="none" xmlns="http://www.w3.org/2000/svg">
<path d="M58.931 57.8287L48.9292 35.6911C48.8323 35.5005 48.6653 35.3544 48.4631 35.2832C48.2608 35.212 48.0388 35.2211 47.8431 35.3088C47.6475 35.3964 47.4932 35.5558 47.4125 35.7537C47.3317 35.9517 47.3306 36.1731 47.4094 36.3719L56.65 56.8282L41.1379 51.9951L39.2558 39.5479C43.346 34.1794 47.6574 26.9504 47.6574 20.3029C47.6837 18.1714 47.2849 16.056 46.4843 14.0792C45.6837 12.1025 44.4972 10.3037 42.9936 8.7872C41.4899 7.27071 39.699 6.06668 37.7247 5.24491C35.7505 4.42315 33.6321 4 31.4924 4C29.3528 4 27.2344 4.42315 25.2601 5.24491C23.2858 6.06668 21.495 7.27071 19.9913 8.7872C18.4876 10.3037 17.3011 12.1025 16.5005 14.0792C15.6999 16.056 15.3012 18.1714 15.3274 20.3029C15.3274 27.3284 20.1447 35.0055 24.4294 40.4467L21.9393 57.0317L5.95306 51.0576L14.3401 32.4957C14.4189 32.297 14.4178 32.0756 14.3371 31.8776C14.2563 31.6796 14.1021 31.5203 13.9064 31.4326C13.7107 31.345 13.4887 31.3358 13.2864 31.407C13.0842 31.4782 12.9172 31.6243 12.8203 31.815L4.06846 51.1957C4.02329 51.3001 4 51.4127 4 51.5264C4 51.6401 4.02329 51.7526 4.06846 51.8571C4.11427 51.9622 4.18098 52.0569 4.26457 52.1356C4.34816 52.2143 4.44689 52.2753 4.55481 52.3149L22.3162 58.948C22.4905 59.012 22.6811 59.0171 22.8585 58.9625L40.3914 53.5044L57.9242 58.9625C58.0772 59.0073 58.2398 59.0078 58.3931 58.9639C58.5463 58.92 58.6838 58.8334 58.7894 58.7145C58.8951 58.5955 58.9645 58.449 58.9896 58.2921C59.0146 58.1353 58.9943 57.9745 58.931 57.8287ZM17.0029 20.3029C17.6838 1.18383 45.3205 1.19109 45.999 20.3029C45.999 30.6473 34.2634 43.1309 31.5009 45.9266C28.736 43.1309 17.0029 30.6546 17.0029 20.3029ZM23.6318 56.9808L25.8569 42.203C29.0546 45.7643 30.3313 47.5594 31.5009 47.9325C32.7314 47.5085 34.312 45.413 37.8478 41.3455L39.46 52.0557L23.6318 56.9808ZM41.7799 20.4458C41.7384 17.7569 40.6371 15.1921 38.7137 13.3052C36.7903 11.4183 34.1991 10.3606 31.4997 10.3606C28.8003 10.3606 26.2092 11.4183 24.2858 13.3052C22.3624 15.1921 21.261 17.7569 21.2195 20.4458C21.261 23.1347 22.3624 25.6995 24.2858 27.5864C26.2092 29.4734 28.8003 30.531 31.4997 30.531C34.1991 30.531 36.7903 29.4734 38.7137 27.5864C40.6371 25.6995 41.7384 23.1347 41.7799 20.4458ZM27.8387 22.0181C27.7508 21.953 27.6508 21.9058 27.5445 21.8792C27.4382 21.8526 27.3277 21.8472 27.2193 21.8631C27.1109 21.8791 27.0068 21.9162 26.9128 21.9723C26.8188 22.0284 26.7368 22.1024 26.6715 22.1901C25.8119 23.538 25.4555 25.1442 25.6648 26.7276C24.393 25.5579 23.505 24.0332 23.1167 22.3529C22.7284 20.6725 22.8579 18.9145 23.4883 17.3086C24.1186 15.7027 25.2205 14.3235 26.65 13.3513C28.0795 12.379 29.7701 11.8589 31.5009 11.8589C33.2318 11.8589 34.9224 12.379 36.3519 13.3513C37.7814 14.3235 38.8833 15.7027 39.5136 17.3086C40.144 18.9145 40.2734 20.6725 39.8852 22.3529C39.4969 24.0332 38.6088 25.5579 37.3371 26.7276C37.5504 25.145 37.1965 23.5382 36.3377 22.1901C36.2044 22.0183 36.0089 21.9053 35.7931 21.8753C35.5772 21.8453 35.3582 21.9006 35.1828 22.0295C35.0074 22.1583 34.8895 22.3504 34.8545 22.5647C34.8195 22.779 34.87 22.9984 34.9954 23.1761C35.9681 24.2711 35.6252 26.6016 35.6762 27.9461C34.3988 28.645 32.9647 29.0109 31.5073 29.0096C30.0499 29.0083 28.6164 28.64 27.3402 27.9389V25.2982C27.3352 24.5368 27.5737 23.7935 28.0211 23.1761C28.0858 23.0882 28.1324 22.9885 28.1583 22.8827C28.1842 22.7768 28.1887 22.6669 28.1718 22.5593C28.1548 22.4516 28.1167 22.3484 28.0595 22.2555C28.0024 22.1626 27.9273 22.0819 27.8387 22.0181ZM31.5009 22.4081C32.4428 22.3838 33.3378 21.9939 33.9953 21.3217C34.6528 20.6494 35.0208 19.7479 35.0208 18.8094C35.0208 17.8708 34.6528 16.9693 33.9953 16.297C33.3378 15.6248 32.4428 15.2349 31.5009 15.2106C30.5591 15.2349 29.6641 15.6248 29.0066 16.297C28.3491 16.9693 27.9811 17.8708 27.9811 18.8094C27.9811 19.7479 28.3491 20.6494 29.0066 21.3217C29.6641 21.9939 30.5591 22.3838 31.5009 22.4081ZM31.5009 16.8725C32.0169 16.8725 32.5117 17.0767 32.8765 17.4401C33.2414 17.8036 33.4463 18.2966 33.4463 18.8106C33.4463 19.3246 33.2414 19.8175 32.8765 20.181C32.5117 20.5444 32.0169 20.7486 31.5009 20.7486C30.985 20.7486 30.4902 20.5444 30.1253 20.181C29.7605 19.8175 29.5555 19.3246 29.5555 18.8106C29.5555 18.2966 29.7605 17.8036 30.1253 17.4401C30.4902 17.0767 30.985 16.8725 31.5009 16.8725Z" fill="white"/>
</svg>
