<svg width="40" height="40" viewBox="0 0 40 40" fill="none" xmlns="http://www.w3.org/2000/svg">
<path d="M29.9303 14.4678H35.2955C36.2423 14.4678 37.0313 15.2568 37.0313 16.2036V33.5614C37.0313 34.5082 36.2423 35.2972 35.2955 35.2972H3.73578C2.78899 35.2972 2 34.5082 2 33.5614V16.2825C2 15.3357 2.78899 14.5467 3.73578 14.5467H11.1523" stroke="#16A4A4" stroke-width="1.4" stroke-miterlimit="10"/>
<path d="M7.28613 35.2972V14.4678" stroke="#16A4A4" stroke-width="1.4" stroke-miterlimit="10"/>
<path d="M4.76074 28.2758V21.5694" stroke="#16A4A4" stroke-width="1.4" stroke-miterlimit="10"/>
<path d="M31.7451 35.2972V14.4678" stroke="#16A4A4" stroke-width="1.4" stroke-miterlimit="10"/>
<path d="M7.28613 21.332L12.888 15.7302L16.2017 19.0439L24.4073 10.8384L26.932 13.2843L34.5064 5.70996" stroke="#16A4A4" stroke-width="1.4" stroke-miterlimit="10"/>
<path d="M32.0605 5H35.2954V8.15597" stroke="#16A4A4" stroke-width="1.4" stroke-miterlimit="10"/>
<path d="M10.6787 17.861V29.7748" stroke="#16A4A4" stroke-width="1.4" stroke-miterlimit="10"/>
<path d="M13.5996 16.2836V29.7753" stroke="#16A4A4" stroke-width="1.4" stroke-miterlimit="10"/>
<path d="M16.5967 18.6497V29.7745" stroke="#16A4A4" stroke-width="1.4" stroke-miterlimit="10"/>
<path d="M19.5156 15.4938V29.7746" stroke="#16A4A4" stroke-width="1.4" stroke-miterlimit="10"/>
<path d="M22.5127 12.7318V29.774" stroke="#16A4A4" stroke-width="1.4" stroke-miterlimit="10"/>
<path d="M25.4316 11.5482V29.7739" stroke="#16A4A4" stroke-width="1.4" stroke-miterlimit="10"/>
<path d="M28.4307 11.7855V29.7745" stroke="#16A4A4" stroke-width="1.4" stroke-miterlimit="10"/>
<path d="M10.6787 30.9573V32.4564" stroke="#16A4A4" stroke-width="1.4" stroke-miterlimit="10"/>
<path d="M13.5996 30.9573V32.4564" stroke="#16A4A4" stroke-width="1.4" stroke-miterlimit="10"/>
<path d="M16.5967 30.9573V32.4564" stroke="#16A4A4" stroke-width="1.4" stroke-miterlimit="10"/>
<path d="M19.5156 30.9573V32.4564" stroke="#16A4A4" stroke-width="1.4" stroke-miterlimit="10"/>
<path d="M22.5127 30.9573V32.4564" stroke="#16A4A4" stroke-width="1.4" stroke-miterlimit="10"/>
<path d="M25.4316 30.9573V32.4564" stroke="#16A4A4" stroke-width="1.4" stroke-miterlimit="10"/>
<path d="M28.4307 30.9573V32.4564" stroke="#16A4A4" stroke-width="1.4" stroke-miterlimit="10"/>
</svg>
