<svg width="40" height="40" viewBox="0 0 40 40" fill="none" xmlns="http://www.w3.org/2000/svg">
<path d="M16.563 17.0656C17.3952 17.0656 18.0706 16.3912 18.0706 15.558C18.0706 14.7258 17.3952 14.0504 16.563 14.0504C15.7308 14.0504 15.0555 14.7258 15.0555 15.558C15.0554 16.3911 15.7308 17.0656 16.563 17.0656ZM22.5933 17.0656C23.4255 17.0656 24.1008 16.3912 24.1008 15.558C24.1008 14.7258 23.4254 14.0504 22.5933 14.0504C21.7611 14.0504 21.0857 14.7258 21.0857 15.558C21.0857 16.3911 21.7611 17.0656 22.5933 17.0656ZM13.6846 26.8516C14.4665 26.9783 16.2424 27.1159 17.0655 27.1159C24.2818 27.1159 29.126 21.746 29.126 15.4323C29.126 9.11864 23.0727 4 17.0655 4C9.8393 4 4 9.11869 4 15.4323C4 19.0897 5.39399 22.1953 8.02018 24.4315V30.131L13.6846 26.8516ZM6.01009 15.558C6.01009 10.2845 10.787 6.01009 17.0655 6.01009C22.0636 6.01009 27.1159 10.2845 27.1159 15.558C27.1159 20.8314 23.1711 25.1059 17.0655 25.1059C16.168 25.1059 14.2956 25.0033 13.4605 24.8294L10.0303 27.1159V23.5541C7.57895 21.5651 6.01009 18.9078 6.01009 15.558ZM31.0848 13.1841C31.1039 13.4725 31.1361 13.758 31.1361 14.0504C31.1361 14.6897 31.0748 15.3158 30.9843 15.9339C32.3371 17.5178 33.1462 19.4686 33.1462 21.5883C33.1462 24.9381 31.1442 27.8808 28.121 29.5843V33.1462L24.6908 30.8598C23.8556 31.0336 22.9883 31.1361 22.0907 31.1361C19.4877 31.1361 18.1048 30.3542 16.2153 29.0537C15.6676 29.0979 15.1138 29.1261 14.553 29.1261C14.153 29.1261 13.761 29.0969 13.367 29.0748C15.759 31.4146 18.2203 32.895 22.0907 32.895C22.9139 32.895 23.7169 32.8206 24.4978 32.6929L30.131 36.1614V30.4607C33.1854 28.3682 35.1563 25.12 35.1563 21.4616C35.1563 18.2012 33.5884 15.2675 31.0848 13.1841ZM10.5328 17.0656C11.3649 17.0656 12.0404 16.3912 12.0404 15.558C12.0404 14.7258 11.3649 14.0504 10.5328 14.0504C9.70058 14.0504 9.02522 14.7258 9.02522 15.558C9.02522 16.3911 9.70058 17.0656 10.5328 17.0656Z" fill="white"/>
</svg>
