<svg width="40" height="40" viewBox="0 0 40 40" fill="none" xmlns="http://www.w3.org/2000/svg">
<path d="M31.8636 20.1802L33.1724 18.8721C33.6087 18.436 34.3162 18.2723 34.6959 18.6536L35.3469 19.3072C35.7266 19.6885 35.5616 20.3968 35.1253 20.8329L33.8165 22.141L31.8636 20.1802Z" stroke="#16A4A4" stroke-width="1.4" stroke-miterlimit="10" stroke-linecap="round" stroke-linejoin="round"/>
<path d="M33.7479 22.2138L23.6636 32.2927L20.9765 33.0221L21.7107 30.3319L31.7949 20.253L33.7479 22.2138Z" stroke="#16A4A4" stroke-width="1.4" stroke-miterlimit="10" stroke-linecap="round" stroke-linejoin="round"/>
<path fill-rule="evenodd" clip-rule="evenodd" d="M10 3.4H27C28.9882 3.4 30.6 5.01178 30.6 7V17H32V7C32 4.23858 29.7614 2 27 2H10C7.23858 2 5 4.23858 5 7V32C5 34.7614 7.23858 37 10 37H27C29.7614 37 32 34.7614 32 32V31H30.6V32C30.6 33.9882 28.9882 35.6 27 35.6H10C8.01178 35.6 6.4 33.9882 6.4 32V7C6.4 5.01177 8.01177 3.4 10 3.4Z" fill="#16A4A4"/>
<path d="M19 7H27" stroke="#16A4A4" stroke-width="1.4" stroke-linecap="round"/>
<path d="M10 11L27 11" stroke="#16A4A4" stroke-width="1.4" stroke-linecap="round"/>
<path d="M10 15L27 15" stroke="#16A4A4" stroke-width="1.4" stroke-linecap="round"/>
<path d="M10 19L27 19" stroke="#16A4A4" stroke-width="1.4" stroke-linecap="round"/>
<path d="M10 30L12 32L15.5 28" stroke="#16A4A4" stroke-width="1.4" stroke-linecap="round"/>
</svg>
