<svg width="40" height="40" viewBox="0 0 40 40" fill="none" xmlns="http://www.w3.org/2000/svg">
<path d="M39.4588 21.1536C38.4977 19.5975 36.4499 19.1132 34.898 20.0717L26.9078 24.9338C26.7431 23.6189 25.589 22.59 24.2156 22.59H14.1378C13.4308 22.59 12.7575 22.4076 12.1909 22.0624C10.4109 20.9783 8.26047 20.7748 6.33813 21.4564V20.3022C6.33813 19.8811 5.99665 19.5396 5.57554 19.5396H1.76259C1.34149 19.5396 1 19.8811 1 20.3022V37.0792C1 37.5003 1.34149 37.8418 1.76259 37.8418H5.57554C5.99665 37.8418 6.33813 37.5003 6.33813 37.0792V36.3868H20.7588C20.9908 36.3868 21.2177 36.3223 21.415 36.2004L38.3802 25.7188C39.936 24.758 40.42 22.7101 39.4588 21.1536ZM4.81295 36.3166H2.52518V21.0648H4.81295V36.3166ZM37.5787 24.4212L20.6802 34.8616H6.33813V23.1046C7.95254 22.3365 9.85421 22.4251 11.3975 23.3651C12.2032 23.8558 13.1508 24.1152 14.1379 24.1152H24.2156C24.8578 24.1152 25.3903 24.6176 25.4027 25.2352C25.4155 25.8779 24.9007 26.4029 24.259 26.4029H18.5396C18.1185 26.4029 17.777 26.7444 17.777 27.1655C17.777 27.5866 18.1185 27.9281 18.5396 27.9281H24.259C24.9453 27.9281 25.5688 27.67 26.0405 27.247L35.6951 21.372C36.5357 20.8528 37.6421 21.1144 38.1612 21.955C38.6804 22.7959 38.4191 23.9022 37.5787 24.4212Z" fill="#16A4A4"/>
<path d="M9.80047 19.5396H31.153C32.4145 19.5396 33.4408 18.5133 33.4408 17.2518C33.4408 13.1515 33.4408 8.21583 33.4408 4.2878C33.4408 3.02632 32.4145 2.00003 31.153 2.00003H9.80047C8.53899 2.00003 7.5127 3.02632 7.5127 4.2878C7.5127 8.21598 7.5127 13.1525 7.5127 17.2518C7.5127 18.5133 8.53899 19.5396 9.80047 19.5396ZM31.153 18.0144H9.80047C9.37997 18.0144 9.03788 17.6723 9.03788 17.2518V10.3885H31.9156V17.2518C31.9156 17.6723 31.5735 18.0144 31.153 18.0144ZM9.03788 7.33816H31.9156V8.86334H9.03788V7.33816ZM9.80047 3.52521H31.153C31.5735 3.52521 31.9156 3.86731 31.9156 4.2878V5.81298H9.03788V4.2878C9.03788 3.86731 9.37997 3.52521 9.80047 3.52521Z" fill="#16A4A4"/>
<path d="M29.6276 11.9137H21.2392C20.8181 11.9137 20.4766 12.2552 20.4766 12.6763V15.7267C20.4766 16.1478 20.8181 16.4893 21.2392 16.4893H29.6276C30.0488 16.4893 30.3902 16.1478 30.3902 15.7267V12.6763C30.3902 12.2552 30.0488 11.9137 29.6276 11.9137ZM28.8651 14.9641H22.0017V13.4389H28.8651V14.9641Z" fill="#16A4A4"/>
<path d="M18.1884 11.9137H11.3251C10.904 11.9137 10.5625 12.2552 10.5625 12.6763C10.5625 13.0974 10.904 13.4389 11.3251 13.4389H18.1884C18.6095 13.4389 18.951 13.0974 18.951 12.6763C18.951 12.2552 18.6096 11.9137 18.1884 11.9137Z" fill="#16A4A4"/>
<path d="M18.1884 14.9641H11.3251C10.904 14.9641 10.5625 15.3056 10.5625 15.7267C10.5625 16.1478 10.904 16.4893 11.3251 16.4893H18.1884C18.6095 16.4893 18.951 16.1478 18.951 15.7267C18.951 15.3056 18.6096 14.9641 18.1884 14.9641Z" fill="#16A4A4"/>
</svg>
