<svg width="33" height="33" viewBox="0 0 33 33" fill="none" xmlns="http://www.w3.org/2000/svg">
<path d="M22.116 7.4342C21.1102 7.4342 20.1455 7.85218 19.4343 8.59617C18.7231 9.34018 18.3234 10.3492 18.3234 11.4014C18.3234 11.6645 18.4233 11.9167 18.6012 12.1027C18.779 12.2887 19.0202 12.3932 19.2716 12.3932C19.5231 12.3932 19.7642 12.2887 19.9421 12.1027C20.1198 11.9167 20.2197 11.6645 20.2197 11.4014C20.2197 10.8753 20.4195 10.3708 20.7751 9.99879C21.1308 9.62679 21.6131 9.41781 22.116 9.41781C22.6189 9.41781 23.1012 9.62679 23.4568 9.99879C23.8125 10.3708 24.1545 11.7891 24.2761 12.4834L24.7977 15.2268C24.25 14.9965 23.662 14.8749 23.0641 14.8728C22.2878 14.8732 21.5234 15.0729 20.8382 15.4546C20.1529 15.8363 19.5677 16.3881 19.1341 17.0617C18.7824 16.6829 18.3616 16.3818 17.8967 16.1762C17.4317 15.9705 16.932 15.8646 16.4273 15.8646C15.9224 15.8646 15.4227 15.9705 14.9578 16.1762C14.4928 16.3818 14.072 16.6829 13.7203 17.0617C13.2866 16.3881 12.7015 15.8363 12.0162 15.4546C11.331 15.0729 10.5666 14.8732 9.79032 14.8728C9.08995 14.8753 8.40334 15.0417 7.77903 15.3546L8.30474 12.4834C8.73064 10.5268 9.01387 10.2677 9.36948 9.8957C9.7251 9.5237 10.2355 9.41782 10.7384 9.41782C11.2414 9.41782 11.7237 9.62681 12.0793 9.99881C12.4349 10.3708 12.6347 10.8753 12.6347 11.4014C12.6347 11.6645 12.7346 11.9167 12.9124 12.1027C13.0902 12.2887 13.3314 12.3932 13.5828 12.3932C13.8343 12.3932 14.0754 12.2887 14.2533 12.1027C14.4311 11.9167 14.531 11.6645 14.531 11.4014C14.531 10.3492 14.1314 9.34018 13.4202 8.59619C12.7089 7.85219 11.7443 7.43422 10.7384 7.43422C9.7326 7.43422 8.76796 7.85219 8.05673 8.59619C7.34549 9.34018 6.93579 10.0535 6.63454 11.4015L5.26261 17.501C5.14112 18.6056 4.38055 20.783 6.43817 23.3384C7.32721 24.2684 8.53301 24.7908 9.79032 24.7908C11.0476 24.7908 12.2534 24.2684 13.1425 23.3384C14.0315 22.4083 14.531 21.1471 14.531 19.8318C14.531 19.3057 14.7307 18.8012 15.0864 18.4292C15.442 18.0572 15.9243 17.8482 16.4273 17.8482C16.9302 17.8482 17.4125 18.0572 17.768 18.4292C18.1237 18.8012 18.3234 19.3057 18.3234 19.8318C18.3234 21.1471 18.823 22.4083 19.712 23.3384C20.6011 24.2684 21.8068 24.7908 23.0641 24.7908C24.3214 24.7908 25.5272 24.2684 26.4162 23.3384C28.0747 21.6035 27.5616 18.858 27.2574 17.501L25.9085 11.4014C25.645 9.99879 25.509 9.34018 24.7977 8.59617C24.0864 7.85218 23.1219 7.4342 22.116 7.4342ZM9.79032 22.8072C9.22774 22.8072 8.67782 22.6328 8.21005 22.3058C7.7423 21.9789 7.37772 21.5142 7.16244 20.9704C6.94715 20.4268 6.89083 19.8285 7.00058 19.2513C7.11033 18.6742 7.38122 18.144 7.77903 17.7279C8.17682 17.3118 8.68365 17.0284 9.23539 16.9136C9.78715 16.7988 10.3591 16.8577 10.8788 17.0829C11.3986 17.3081 11.8428 17.6895 12.1553 18.1788C12.4679 18.6681 12.6347 19.2433 12.6347 19.8318C12.6347 20.6209 12.335 21.3777 11.8016 21.9358C11.2682 22.4937 10.5447 22.8072 9.79032 22.8072ZM23.0641 22.8072C22.5015 22.8072 21.9516 22.6328 21.4838 22.3058C21.0161 21.9789 20.6515 21.5142 20.4362 20.9704C20.2209 20.4268 20.1646 19.8285 20.2744 19.2513C20.3842 18.6742 20.6551 18.144 21.0529 17.7279C21.4506 17.3118 21.9574 17.0284 22.5093 16.9136C23.061 16.7988 23.6329 16.8577 24.1526 17.0829C24.6724 17.3081 25.1166 17.6895 25.4291 18.1788C25.7417 18.6681 25.9085 19.2433 25.9085 19.8318C25.9085 20.6209 25.6089 21.3777 25.0754 21.9358C24.542 22.4937 23.8185 22.8072 23.0641 22.8072Z" fill="white"/>
</svg>
