<svg width="40" height="40" viewBox="0 0 40 40" fill="none" xmlns="http://www.w3.org/2000/svg">
<path fill-rule="evenodd" clip-rule="evenodd" d="M18.7473 21.3562C18.7473 22.951 17.532 24.2437 16.033 24.2437C14.5339 24.2437 13.3187 22.951 13.3187 21.3562C13.3187 19.7615 14.5339 18.4688 16.033 18.4688C17.532 18.4688 18.7473 19.7615 18.7473 21.3562ZM17.0769 21.3562C17.0769 22.157 16.4951 22.5938 16.033 22.5938C15.5708 22.5938 14.989 22.157 14.989 21.3562C14.989 20.5555 15.5708 20.1187 16.033 20.1187C16.4951 20.1187 17.0769 20.5555 17.0769 21.3562Z" fill="black"/>
<path fill-rule="evenodd" clip-rule="evenodd" d="M22.5055 30.6375C24.0046 30.6375 25.2198 29.3447 25.2198 27.75C25.2198 26.1553 24.0046 24.8625 22.5055 24.8625C21.0064 24.8625 19.7912 26.1553 19.7912 27.75C19.7912 29.3447 21.0064 30.6375 22.5055 30.6375ZM22.5055 28.9875C22.9676 28.9875 23.5494 28.5507 23.5494 27.75C23.5494 26.9493 22.9676 26.5125 22.5055 26.5125C22.0433 26.5125 21.4615 26.9493 21.4615 27.75C21.4615 28.5507 22.0433 28.9875 22.5055 28.9875Z" fill="black"/>
<path d="M23.2448 18.8525C23.4594 18.4491 23.3023 17.9504 22.894 17.7384C22.4856 17.5265 21.9807 17.6817 21.7662 18.085L15.2936 30.2538C15.0791 30.6571 15.2362 31.1559 15.6445 31.3678C16.0528 31.5798 16.5578 31.4246 16.7723 31.0212L23.2448 18.8525Z" fill="black"/>
<path fill-rule="evenodd" clip-rule="evenodd" d="M20.4176 6.09375V13.1513C20.628 13.1695 20.8369 13.1932 21.044 13.2222V10.425H21.0636C21.3716 8.81253 25.2647 7.5375 30.022 7.5375C34.9804 7.5375 39 8.92262 39 10.6312V30.0187C39 31.7274 34.6532 33.1125 29.2912 33.1125C28.5794 33.1125 27.8854 33.0881 27.2172 33.0418C25.1429 34.8802 22.3916 36 19.3732 36C13.9296 36 9.35483 32.3577 8.05275 27.4266C3.98189 27.0584 1 25.8652 1 24.45V6.09375C1 4.38512 5.34677 3 10.7088 3C16.0708 3 20.4176 4.38512 20.4176 6.09375ZM18.8124 5.83058C18.8128 5.8306 18.8104 5.83463 18.8037 5.84259C18.8087 5.83453 18.812 5.83055 18.8124 5.83058ZM18.4849 6.09375C18.1846 5.90358 17.7177 5.68568 17.0611 5.47646C15.5108 4.98245 13.2647 4.65 10.7088 4.65C8.15286 4.65 5.90673 4.98245 4.35644 5.47646C3.69987 5.68568 3.23296 5.90358 2.93265 6.09375C3.23296 6.28392 3.69987 6.50182 4.35644 6.71104C5.90673 7.20505 8.15286 7.5375 10.7088 7.5375C13.2647 7.5375 15.5108 7.20505 17.0611 6.71104C17.7177 6.50182 18.1846 6.28392 18.4849 6.09375ZM2.6052 5.83058C2.60563 5.83055 2.60893 5.83453 2.61384 5.84259C2.60724 5.83464 2.60478 5.8306 2.6052 5.83058ZM10.7088 9.1875C14.0522 9.1875 17.001 8.64896 18.7473 7.82925V13.1224C13.6586 13.3852 9.43245 16.8335 8.11081 21.4683C5.86524 21.6665 3.94664 22.1154 2.67033 22.7145V19.3472C2.69577 19.3568 2.72126 19.3661 2.74682 19.3751C2.96931 19.4531 3.1783 19.5011 3.36944 19.5405C3.43772 19.5546 3.5009 19.5671 3.56259 19.5793L3.5628 19.5794C3.68556 19.6037 3.80256 19.6268 3.94222 19.659C4.91461 19.883 5.87903 19.9125 6.21978 19.9125C6.68103 19.9125 7.05494 19.5431 7.05494 19.0875C7.05494 18.6319 6.68103 18.2625 6.21978 18.2625C5.94062 18.2625 5.11847 18.2357 4.32152 18.0521C4.15654 18.0141 3.99536 17.9821 3.8609 17.9555L3.86049 17.9554L3.86022 17.9553C3.80555 17.9445 3.7553 17.9345 3.71103 17.9254C3.54466 17.8911 3.42203 17.861 3.30577 17.8202C3.14332 17.7632 2.95095 17.6706 2.67033 17.4595V15.6046C3.18343 15.7945 3.59551 15.9151 3.95219 15.9977C4.31576 16.0819 4.63562 16.1277 4.89341 16.1646C4.98537 16.1778 5.06944 16.1898 5.14476 16.202C5.79635 16.3079 6.70869 16.3573 7.3215 16.3814C7.51174 16.3889 7.67851 16.3941 7.80641 16.3977C7.84572 16.4033 7.88592 16.4062 7.92681 16.4062L7.95571 16.4063C8.03204 16.4063 8.09324 16.4063 8.11919 16.4055L8.12802 16.4053L8.1344 16.405L8.14023 16.4047C8.14353 16.4046 8.17399 16.4032 8.21088 16.3982C8.22316 16.3965 8.2536 16.3914 8.27176 16.3878C8.30158 16.381 8.38716 16.355 8.44176 16.3329C8.56981 16.262 8.88993 15.8453 8.92559 15.4634C8.82174 15.1674 8.52189 14.8693 8.42262 14.8201C8.37746 14.8029 8.30597 14.7814 8.28035 14.7753C8.26422 14.7719 8.237 14.767 8.2259 14.7652C8.20422 14.7619 8.18706 14.7602 8.17999 14.7595C8.15609 14.7572 8.13542 14.7563 8.13333 14.7562L8.12414 14.7558L8.11584 14.7555C8.09899 14.7549 8.07337 14.7542 8.04561 14.7535L8.02525 14.753C7.90206 14.7498 7.67238 14.7439 7.38791 14.7327C6.77143 14.7085 5.95372 14.6613 5.4159 14.5739C5.28722 14.553 5.17394 14.5369 5.06575 14.5214C4.83242 14.4882 4.62279 14.4583 4.33362 14.3913C3.94674 14.3017 3.43424 14.1459 2.67033 13.8287V11.9054C4.24338 12.4857 6.08969 12.7751 7.20179 12.8568C8.13106 12.9251 9.4728 12.8962 10.4727 12.8747L10.4729 12.8747C10.8616 12.8663 11.1986 12.8591 11.4396 12.8591C11.8786 12.8591 12.6788 12.7745 13.3984 12.6792C14.1129 12.5845 14.8699 12.4632 15.2134 12.3685C15.6577 12.2461 15.9174 11.7911 15.7935 11.3522C15.6695 10.9133 15.2089 10.6568 14.7646 10.7792C14.5513 10.838 13.9095 10.9467 13.1764 11.0438C12.4483 11.1403 11.7522 11.2091 11.4396 11.2091C11.1299 11.2091 10.7403 11.2176 10.3139 11.2268L10.3134 11.2268L10.3132 11.2269C9.33819 11.2481 8.17081 11.2735 7.32569 11.2114C6.13839 11.1241 4.10169 10.7765 2.67033 10.1198V7.82925C4.41663 8.64896 7.36534 9.1875 10.7088 9.1875ZM31.0651 24.5531C31.0651 19.3678 27.5436 14.9878 22.7143 13.5804V12.4289C24.3428 13.2136 27.009 13.725 30.022 13.725C33.0349 13.725 35.7012 13.2136 37.3297 12.4289V15.6127C36.0455 16.042 35.5794 16.1155 34.7027 16.2429C33.6928 16.3896 33.2474 16.4062 32.7363 16.4062H30.2308C29.7695 16.4062 29.3956 16.7756 29.3956 17.2312C29.3956 17.6869 29.7695 18.0562 30.2308 18.0562H32.7363C33.3341 18.0562 33.8608 18.0329 34.9457 17.8753C35.7853 17.7534 36.3167 17.6656 37.3297 17.3491V19.5255C34.5219 20.1188 33.9364 20.1188 32.1593 20.1188L32.1099 20.1187C31.6486 20.1187 31.2747 20.4881 31.2747 20.9438C31.2747 21.3994 31.6486 21.7687 32.1099 21.7687C33.9592 21.7687 34.6669 21.7637 37.3297 21.2121V23.5219L37.316 23.427C35.1822 23.7282 34.4853 23.7281 33.5919 23.7281H33.5714C33.1102 23.7281 32.7363 24.0975 32.7363 24.5531C32.7363 25.0088 33.1102 25.3781 33.5714 25.3781C34.5141 25.3781 35.2651 25.3759 37.3297 25.0915V28.2833C35.8525 27.5898 33.5148 27.0976 30.8057 26.9624C30.9757 26.1856 31.0651 25.3796 31.0651 24.5531ZM28.7004 31.4565C29.3706 30.59 29.9176 29.6272 30.3161 28.593C32.4454 28.6684 34.3042 28.9747 35.6436 29.4015C36.3001 29.6107 36.767 29.8286 37.0673 30.0187C36.767 30.2089 36.3001 30.4268 35.6436 30.636C34.0933 31.1301 31.8471 31.4625 29.2912 31.4625C29.0923 31.4625 28.8953 31.4605 28.7004 31.4565ZM7.68132 24.5531C7.68132 24.953 7.70226 25.3481 7.74313 25.7374C6.42525 25.5934 5.27002 25.3584 4.35644 25.0673C3.69987 24.8581 3.23296 24.6402 2.93265 24.45C3.23296 24.2598 3.69987 24.0419 4.35644 23.8327C5.27554 23.5398 6.43922 23.3037 7.76703 23.16C7.71044 23.6167 7.68132 24.0816 7.68132 24.5531ZM9.35165 24.5531C9.35165 19.1563 13.8244 14.7562 19.3732 14.7562C24.9221 14.7562 29.3948 19.1563 29.3948 24.5531C29.3948 29.9499 24.9221 34.35 19.3732 34.35C13.8244 34.35 9.35165 29.9499 9.35165 24.5531ZM37.3781 10.4185C37.3782 10.4185 37.3779 10.4192 37.3771 10.4205C37.3761 10.4221 37.3744 10.4246 37.3718 10.4281C37.3754 10.4217 37.3778 10.4185 37.3781 10.4185ZM37.1418 10.6312C36.8817 10.4437 36.4515 10.2191 35.8202 10.0016C34.415 9.51734 32.3651 9.1875 30.022 9.1875C27.6789 9.1875 25.6289 9.51734 24.2237 10.0016C23.5924 10.2191 23.1623 10.4437 22.9021 10.6312C23.1623 10.8188 23.5924 11.0434 24.2237 11.2609C25.6289 11.7452 27.6789 12.075 30.022 12.075C32.3651 12.075 34.415 11.7452 35.8202 11.2609C36.4515 11.0434 36.8817 10.8188 37.1418 10.6312ZM22.6659 10.4185C22.6661 10.4185 22.6678 10.4207 22.6704 10.425H22.6699C22.6668 10.4207 22.6656 10.4185 22.6659 10.4185ZM37.3917 30.2769C37.3903 30.275 37.3885 30.2727 37.3862 30.2699C37.3889 30.2744 37.3912 30.2776 37.3927 30.2796C37.3939 30.2812 37.3946 30.2819 37.3948 30.2819C37.3951 30.2819 37.3941 30.2802 37.3917 30.2769ZM2.6052 24.7132C2.60478 24.7131 2.60724 24.7091 2.61384 24.7012C2.60893 24.7092 2.60563 24.7132 2.6052 24.7132ZM8.05742 16.4045C8.0611 16.4046 8.0628 16.4047 8.06289 16.4047C8.063 16.4047 8.06074 16.4046 8.0568 16.4044L8.05742 16.4045Z" fill="black"/>
</svg>
