<svg width="63" height="63" viewBox="0 0 63 63" fill="none" xmlns="http://www.w3.org/2000/svg">
<path d="M30.5298 11.8634V16.0577H33.1052C33.6517 16.0577 34.1757 15.8367 34.5621 15.4434C34.9485 15.0502 35.1656 14.5167 35.1656 13.9605C35.1656 13.4043 34.9485 12.8709 34.5621 12.4776C34.1757 12.0844 33.6517 11.8634 33.1052 11.8634H30.5298ZM30.5298 11.8634V21.3005" stroke="white" stroke-linecap="round" stroke-linejoin="round"/>
<path d="M28.874 18.1548H33.6754" stroke="white" stroke-linecap="round" stroke-linejoin="round"/>
<path d="M19.8662 58.1912H43.459" stroke="white" stroke-width="2" stroke-linecap="round"/>
<path d="M31.877 58.1911V26.877" stroke="white" stroke-width="2" stroke-linecap="round"/>
<path d="M32.3062 55.6173L43.4591 43.6064" stroke="white" stroke-width="2" stroke-linecap="round"/>
<path d="M37.0249 49.1831C36.8819 48.6111 36.6818 46.8667 37.0249 44.4645C37.4539 41.4618 39.5482 38.4066 40.8854 37.1722C43.8882 34.4004 46.4619 33.7404 52.4674 32.8825C54.166 32.6399 53.3253 39.317 52.4674 41.8907C51.6095 44.4645 50.3226 46.1804 48.1778 47.8962C45.4968 50.041 40.3135 49.898 37.4538 50.041" stroke="white" stroke-width="2" stroke-linecap="round"/>
<path d="M26.4258 40.1811C26.5687 39.6092 26.7689 37.8647 26.4258 35.4626C25.9968 32.4598 23.9025 29.4047 22.5652 28.1702C19.5625 25.3985 16.9888 24.7385 10.9833 23.8806C9.28471 23.6379 10.1254 30.315 10.9833 32.8888C11.8412 35.4626 13.1281 37.1784 15.2729 38.8943C17.9539 41.0391 23.1372 40.8961 25.9969 41.0391" stroke="white" stroke-width="2" stroke-linecap="round"/>
<path d="M31.4479 46.1803L20.2949 35.0273" stroke="white" stroke-width="2" stroke-linecap="round"/>
<path fill-rule="evenodd" clip-rule="evenodd" d="M32.011 4.0078C31.8686 4.00262 31.7256 4 31.5819 4C25.1854 4 20 9.18541 20 15.5819C20 21.9785 25.1854 27.1639 31.5819 27.1639C37.9785 27.1639 43.1639 21.9785 43.1639 15.5819C43.1639 14.5434 43.0272 13.5368 42.7708 12.5792H40.6839C40.9954 13.5237 41.1639 14.5331 41.1639 15.5819C41.1639 20.8739 36.8739 25.1639 31.5819 25.1639C26.29 25.1639 22 20.8739 22 15.5819C22 10.29 26.29 6 31.5819 6C31.7257 6 31.8688 6.00317 32.011 6.00943V4.0078Z" fill="white"/>
<circle cx="38.2869" cy="7.28688" r="1.28688" fill="white"/>
</svg>
