<svg width="40" height="40" viewBox="0 0 40 40" fill="none" xmlns="http://www.w3.org/2000/svg">
<path d="M20.1883 28.7841C20.1883 29.6526 18.9571 29.3318 18.4622 29.3885C18.3095 29.3885 18.163 29.3248 18.055 29.2115C17.947 29.0981 17.8863 28.9444 17.8863 28.7841C17.8863 28.6238 17.947 28.4701 18.055 28.3567C18.163 28.2434 18.3095 28.1797 18.4622 28.1797H19.0381C19.0213 27.6993 18.9723 26.9815 19.6124 26.9708C20.44 26.962 20.136 28.2648 20.1883 28.7841ZM7.71703 28.1797H7.14109V27.5753C7.14109 27.415 7.08041 27.2612 6.9724 27.1479C6.86439 27.0345 6.7179 26.9708 6.56516 26.9708C6.41241 26.9708 6.26592 27.0345 6.15791 27.1479C6.0499 27.2612 5.98922 27.415 5.98922 27.5753C6.04326 28.0964 5.73756 29.3974 6.56516 29.3885H7.71703C7.79266 29.3885 7.86755 29.3729 7.93743 29.3425C8.0073 29.3121 8.0708 29.2676 8.12428 29.2115C8.17776 29.1554 8.22018 29.0887 8.24912 29.0154C8.27807 28.9421 8.29296 28.8635 8.29296 28.7841C8.29296 28.7047 8.27807 28.6261 8.24912 28.5528C8.22018 28.4795 8.17776 28.4128 8.12428 28.3567C8.0708 28.3006 8.0073 28.2561 7.93743 28.2257C7.86755 28.1953 7.79266 28.1797 7.71703 28.1797ZM6.5736 13.6807C6.72606 13.6807 6.87229 13.6173 6.98025 13.5043C7.08821 13.3913 7.14909 13.2381 7.14954 13.0781V10.6604C7.14954 10.5001 7.08886 10.3463 6.98085 10.233C6.87284 10.1196 6.72635 10.056 6.5736 10.056C6.42085 10.056 6.27436 10.1196 6.16635 10.233C6.05834 10.3463 5.99766 10.5001 5.99766 10.6604V13.0781C5.99811 13.2381 6.05899 13.3913 6.16695 13.5043C6.27491 13.6173 6.42114 13.6807 6.5736 13.6807ZM6.5736 24.9573C6.72606 24.9573 6.87229 24.8939 6.98025 24.7809C7.08821 24.6679 7.14909 24.5146 7.14954 24.3546V21.937C7.14954 21.7767 7.08886 21.6229 6.98085 21.5096C6.87284 21.3962 6.72635 21.3325 6.5736 21.3325C6.42085 21.3325 6.27436 21.3962 6.16635 21.5096C6.05834 21.6229 5.99766 21.7767 5.99766 21.937V24.3546C5.99811 24.5146 6.05899 24.6679 6.16695 24.7809C6.27491 24.8939 6.42114 24.9573 6.5736 24.9573ZM6.5736 19.319C6.72606 19.319 6.87229 19.2556 6.98025 19.1426C7.08821 19.0296 7.14909 18.8763 7.14954 18.7164V16.3004C7.14954 16.1401 7.08886 15.9864 6.98085 15.8731C6.87284 15.7597 6.72635 15.696 6.5736 15.696C6.42085 15.696 6.27436 15.7597 6.16635 15.8731C6.05834 15.9864 5.99766 16.1401 5.99766 16.3004V18.7164C5.99811 18.8763 6.05899 19.0296 6.16695 19.1426C6.27491 19.2556 6.42114 19.319 6.5736 19.319ZM7.72547 5.62651H6.5736C5.7477 5.61588 6.05002 6.92043 5.99766 7.43977C5.99766 7.60007 6.05834 7.75381 6.16635 7.86716C6.27436 7.98051 6.42085 8.04419 6.5736 8.04419C6.72635 8.04419 6.87284 7.98051 6.98085 7.86716C7.08886 7.75381 7.14954 7.60007 7.14954 7.43977V6.83535H7.72547C7.87822 6.83418 8.02427 6.76937 8.13148 6.65519C8.2387 6.54101 8.29831 6.3868 8.29719 6.2265C8.29607 6.0662 8.23431 5.91293 8.12551 5.80041C8.01671 5.68789 7.86978 5.62534 7.71703 5.62651H7.72547ZM14.5624 5.62651H11.6236C11.4709 5.62651 11.3244 5.69019 11.2164 5.80354C11.1083 5.9169 11.0477 6.07063 11.0477 6.23093C11.0477 6.39124 11.1083 6.54497 11.2164 6.65832C11.3244 6.77167 11.4709 6.83535 11.6236 6.83535H14.5539C14.7067 6.83535 14.8532 6.77167 14.9612 6.65832C15.0692 6.54497 15.1299 6.39124 15.1299 6.23093C15.1299 6.07063 15.0692 5.9169 14.9612 5.80354C14.8532 5.69019 14.7067 5.62651 14.5539 5.62651H14.5624ZM19.6208 5.62651H18.4707C18.3179 5.62651 18.1714 5.69019 18.0634 5.80354C17.9554 5.9169 17.8947 6.07063 17.8947 6.23093C17.8947 6.39124 17.9554 6.54497 18.0634 6.65832C18.1714 6.77167 18.3179 6.83535 18.4707 6.83535H19.0466V7.43977C19.0546 7.59418 19.1186 7.73951 19.2256 7.84586C19.3326 7.9522 19.4743 8.01147 19.6217 8.01147C19.769 8.01147 19.9108 7.9522 20.0178 7.84586C20.1247 7.73951 20.1888 7.59418 20.1968 7.43977C20.136 6.92043 20.44 5.61588 19.6124 5.62651H19.6208ZM19.6208 21.3343C19.4685 21.3343 19.3225 21.3978 19.2148 21.5108C19.1071 21.6239 19.0466 21.7771 19.0466 21.937V24.3546C19.0546 24.5091 19.1186 24.6544 19.2256 24.7607C19.3326 24.8671 19.4743 24.9263 19.6217 24.9263C19.769 24.9263 19.9108 24.8671 20.0178 24.7607C20.1247 24.6544 20.1888 24.5091 20.1968 24.3546V21.937C20.1968 21.8569 20.1816 21.7777 20.1521 21.7039C20.1226 21.63 20.0794 21.5631 20.025 21.507C19.9706 21.4509 19.9061 21.4068 19.8353 21.3771C19.7644 21.3475 19.6887 21.3329 19.6124 21.3343H19.6208ZM19.6208 15.696C19.5453 15.696 19.4705 15.7117 19.4007 15.7421C19.3309 15.7725 19.2675 15.817 19.2142 15.8732C19.1608 15.9293 19.1186 15.996 19.0898 16.0693C19.0611 16.1426 19.0464 16.2212 19.0466 16.3004V18.7164C19.0546 18.8708 19.1186 19.0161 19.2256 19.1224C19.3326 19.2288 19.4743 19.2881 19.6217 19.2881C19.769 19.2881 19.9108 19.2288 20.0178 19.1224C20.1247 19.0161 20.1888 18.8708 20.1968 18.7164V16.3004C20.197 16.2203 20.182 16.1408 20.1526 16.0668C20.1232 15.9928 20.08 15.9256 20.0256 15.8694C19.9712 15.8131 19.9066 15.7687 19.8357 15.739C19.7647 15.7092 19.6888 15.6946 19.6124 15.696H19.6208ZM19.6208 10.056C19.4684 10.0564 19.3223 10.1203 19.2147 10.2336C19.107 10.3469 19.0466 10.5004 19.0466 10.6604V13.0781C19.0546 13.2325 19.1186 13.3778 19.2256 13.4841C19.3326 13.5905 19.4743 13.6498 19.6217 13.6498C19.769 13.6498 19.9108 13.5905 20.0178 13.4841C20.1247 13.3778 20.1888 13.2325 20.1968 13.0781V10.6604C20.1968 10.5803 20.1816 10.5009 20.1521 10.427C20.1227 10.3531 20.0795 10.2861 20.0251 10.2298C19.9707 10.1736 19.9062 10.1293 19.8354 10.0994C19.7645 10.0696 19.6887 10.0548 19.6124 10.056H19.6208ZM29.8306 24.4131H26.9053C26.7582 24.4215 26.6197 24.4887 26.5184 24.601C26.4171 24.7133 26.3606 24.862 26.3606 25.0167C26.3606 25.1713 26.4171 25.3201 26.5184 25.4323C26.6197 25.5446 26.7582 25.6118 26.9053 25.6202H29.8222C29.9633 25.6041 30.0938 25.5338 30.1886 25.4229C30.2834 25.312 30.3358 25.1683 30.3358 25.0193C30.3358 24.8703 30.2834 24.7266 30.1886 24.6157C30.0938 24.5048 29.9633 24.4346 29.8222 24.4185L29.8306 24.4131ZM30.7511 31.8009C30.604 31.8092 30.4655 31.8765 30.3642 31.9887C30.2628 32.101 30.2063 32.2498 30.2063 32.4044C30.2063 32.559 30.2628 32.7078 30.3642 32.8201C30.4655 32.9323 30.604 32.9996 30.7511 33.0079C30.8921 32.9908 31.0222 32.9195 31.1162 32.8079C31.2103 32.6963 31.2617 32.5521 31.2607 32.4031C31.2596 32.2541 31.2062 32.1107 31.1105 32.0006C31.0149 31.8904 30.8839 31.8212 30.7427 31.8062L30.7511 31.8009ZM39 24.3564V30.8012C39.0002 31.0929 38.9456 31.3818 38.8391 31.6513C38.7327 31.9207 38.5766 32.1655 38.3799 32.3715C38.1831 32.5775 37.9495 32.7408 37.6924 32.8518C37.4354 32.9628 37.16 33.0195 36.882 33.0186H35.1171C34.9675 34.1234 34.443 35.1344 33.6399 35.8658C32.8369 36.5973 31.8093 37 30.746 37C29.6827 37 28.6551 36.5973 27.8521 35.8658C27.0491 35.1344 26.5246 34.1234 26.375 33.0186H17.4607C17.3111 34.1234 16.7866 35.1344 15.9835 35.8658C15.1805 36.5973 14.1529 37 13.0896 37C12.0263 37 10.9987 36.5973 10.1957 35.8658C9.39269 35.1344 8.86818 34.1234 8.71858 33.0186H1.57596C1.4999 33.0186 1.42459 33.0028 1.35438 32.9721C1.28417 32.9414 1.22046 32.8964 1.16691 32.8397C1.11336 32.783 1.07104 32.7157 1.0424 32.6418C1.01376 32.5678 0.999353 32.4887 1.00002 32.4088C1.00002 31.5953 2.05225 31.8381 2.53529 31.8062V5.01323C2.53841 4.21386 2.84285 3.44826 3.38209 2.88367C3.92134 2.31909 4.65157 2.0014 5.41328 2H20.7609C21.5216 2.0028 22.2503 2.32117 22.7882 2.88565C23.3261 3.45014 23.6295 4.21494 23.6321 5.01323V9.25126H28.2008C29.0641 9.25144 29.9084 9.51759 30.629 10.0167C31.3496 10.5158 31.9147 11.2259 32.2543 12.0589L35.7217 20.5509C36.6182 20.649 37.4484 21.0919 38.0522 21.7943C38.6559 22.4966 38.9906 23.4087 38.9916 24.3546L39 24.3564ZM13.0896 28.9862C12.2373 29.0065 11.4264 29.3762 10.8304 30.016C10.2345 30.6558 9.90078 31.515 9.90078 32.4097C9.90078 33.3045 10.2345 34.1637 10.8304 34.8035C11.4264 35.4433 12.2373 35.8129 13.0896 35.8333C13.942 35.8129 14.7529 35.4433 15.3488 34.8035C15.9448 34.1637 16.2785 33.3045 16.2785 32.4097C16.2785 31.515 15.9448 30.6558 15.3488 30.016C14.7529 29.3762 13.942 29.0065 13.0896 28.9862ZM22.4921 5.01323C22.4894 4.5334 22.3058 4.0742 21.9813 3.73606C21.6569 3.39792 21.2181 3.20836 20.7609 3.20884H5.41328C4.95693 3.20977 4.51942 3.39994 4.19609 3.73793C3.87277 4.07592 3.68984 4.53432 3.68716 5.01323V31.8062H8.71858C8.86818 30.7014 9.39269 29.6904 10.1957 28.9589C10.9987 28.2275 12.0263 27.8248 13.0896 27.8248C14.1529 27.8248 15.1805 28.2275 15.9835 28.9589C16.7866 29.6904 17.3111 30.7014 17.4607 31.8062H22.4921V5.01323ZM27.4813 18.0641C27.4822 18.7155 27.729 19.34 28.1678 19.8008C28.6066 20.2616 29.2014 20.5211 29.8222 20.5225H34.4736L31.2088 12.5286C30.8882 11.8033 30.3504 11.208 29.6775 10.8333C29.0045 10.4586 28.2333 10.325 27.4813 10.453V18.0641ZM30.7427 28.9791C29.8903 28.9994 29.0794 29.3691 28.4835 30.0089C27.8875 30.6487 27.5538 31.5079 27.5538 32.4026C27.5538 33.2974 27.8875 34.1566 28.4835 34.7964C29.0794 35.4362 29.8903 35.8058 30.7427 35.8262C31.5783 35.7815 32.3656 35.4017 32.942 34.7653C33.5184 34.1288 33.8398 33.2842 33.8398 32.4062C33.8398 31.5281 33.5184 30.6836 32.942 30.0471C32.3656 29.4106 31.5783 29.0308 30.7427 28.9862V28.9791ZM35.3468 21.7296H29.8222C28.8983 21.7268 28.013 21.3405 27.3595 20.6551C26.7061 19.9696 26.3376 19.0407 26.3345 18.0712V10.4601H23.6423V31.8062H26.3716C26.5212 30.7014 27.0457 29.6904 27.8487 28.9589C28.6518 28.2275 29.6794 27.8248 30.7427 27.8248C31.806 27.8248 32.8335 28.2275 33.6366 28.9589C34.4396 29.6904 34.9641 30.7014 35.1137 31.8062C35.9751 31.714 37.8042 32.2387 37.8414 30.7994V28.9862H35.8737C35.721 28.9862 35.5745 28.9225 35.4665 28.8091C35.3585 28.6958 35.2978 28.542 35.2978 28.3817C35.2978 28.2214 35.3585 28.0677 35.4665 27.9544C35.5745 27.841 35.721 27.7773 35.8737 27.7773H37.8414V25.6255H35.8737C35.7956 25.63 35.7174 25.6177 35.6439 25.5893C35.5705 25.561 35.5033 25.5173 35.4465 25.4608C35.3897 25.4043 35.3444 25.3363 35.3135 25.2608C35.2826 25.1854 35.2666 25.1041 35.2666 25.022C35.2666 24.9399 35.2826 24.8586 35.3135 24.7831C35.3444 24.7077 35.3897 24.6397 35.4465 24.5832C35.5033 24.5267 35.5705 24.483 35.6439 24.4546C35.7174 24.4263 35.7956 24.414 35.8737 24.4185H37.8414C37.8488 24.0695 37.7898 23.7225 37.6678 23.3978C37.5458 23.0731 37.3633 22.7772 37.131 22.5275C36.8987 22.2777 36.6212 22.0791 36.3148 21.9434C36.0085 21.8076 35.6794 21.7373 35.3468 21.7367V21.7296ZM13.0896 31.8062C12.9425 31.8146 12.804 31.8818 12.7027 31.9941C12.6013 32.1063 12.5449 32.2551 12.5449 32.4097C12.5449 32.5644 12.6013 32.7131 12.7027 32.8254C12.804 32.9377 12.9425 33.0049 13.0896 33.0133C13.2368 33.0049 13.3752 32.9377 13.4766 32.8254C13.5779 32.7131 13.6344 32.5644 13.6344 32.4097C13.6344 32.2551 13.5779 32.1063 13.4766 31.9941C13.3752 31.8818 13.2368 31.8146 13.0896 31.8062Z" fill="black" stroke="black" stroke-width="0.3"/>
</svg>
