<svg width="63" height="63" viewBox="0 0 63 63" fill="none" xmlns="http://www.w3.org/2000/svg">
<path d="M53.9375 35.25H51.5V25.5C51.5 23.2599 49.6776 21.4375 47.4375 21.4375H36.875V6.8125C36.875 6.364 36.5118 6 36.0625 6H6.8125C6.36319 6 6 6.364 6 6.8125V42.5625V49.0625C6 51.3026 7.82244 53.125 10.0625 53.125H10.94C11.3365 55.8769 13.7033 58 16.5625 58C19.4217 58 21.7885 55.8769 22.185 53.125H36.0625H38.565C38.9615 55.8769 41.3283 58 44.1875 58C47.0467 58 49.4135 55.8769 49.81 53.125H53.9375C56.1776 53.125 58 51.3026 58 49.0625V44.1875V39.3125C58 37.0724 56.1776 35.25 53.9375 35.25ZM7.625 40.125H35.25V41.75H7.625V40.125ZM7.625 13.3125V7.625H35.25V13.3125H33.625V14.9375H35.25V22.25V38.5H7.625V14.9375H9.25V13.3125H7.625ZM16.5625 56.375C14.3224 56.375 12.5 54.5526 12.5 52.3125C12.5 50.0724 14.3224 48.25 16.5625 48.25C18.8026 48.25 20.625 50.0724 20.625 52.3125C20.625 54.5526 18.8026 56.375 16.5625 56.375ZM35.25 51.5H22.185C21.7885 48.7481 19.4217 46.625 16.5625 46.625C13.7033 46.625 11.3365 48.7481 10.94 51.5H10.0625C8.71863 51.5 7.625 50.4064 7.625 49.0625V43.375H35.25V51.5ZM44.1875 56.375C41.9474 56.375 40.125 54.5526 40.125 52.3125C40.125 50.0724 41.9474 48.25 44.1875 48.25C46.4276 48.25 48.25 50.0724 48.25 52.3125C48.25 54.5526 46.4276 56.375 44.1875 56.375ZM53.9375 51.5H49.81C49.4135 48.7481 47.0467 46.625 44.1875 46.625C41.3283 46.625 38.9615 48.7481 38.565 51.5H36.875V42.5625V23.0625H47.4375C48.7814 23.0625 49.875 24.1561 49.875 25.5V36.0625C49.875 36.511 50.2382 36.875 50.6875 36.875H53.9375C55.2814 36.875 56.375 37.9686 56.375 39.3125V43.375H54.75C52.9576 43.375 51.5 44.8326 51.5 46.625C51.5 48.4174 52.9576 49.875 54.75 49.875H56.2255C55.8891 50.8183 54.9954 51.5 53.9375 51.5ZM56.375 48.25H54.75C53.8538 48.25 53.125 47.5212 53.125 46.625C53.125 45.7288 53.8538 45 54.75 45H56.375V48.25Z" fill="white"/>
<path d="M47.4375 24.6875H39.3125C38.8632 24.6875 38.5 25.0515 38.5 25.5V32.8125C38.5 33.261 38.8632 33.625 39.3125 33.625H47.4375C47.8868 33.625 48.25 33.261 48.25 32.8125V25.5C48.25 25.0515 47.8868 24.6875 47.4375 24.6875ZM46.625 32H40.125V26.3125H46.625V32Z" fill="white"/>
<path d="M41.75 35.25H38.5V36.875H41.75V35.25Z" fill="white"/>
<path d="M24.6875 45H23.0625V46.625H24.6875V45Z" fill="white"/>
<path d="M27.9375 45H26.3125V46.625H27.9375V45Z" fill="white"/>
<path d="M31.1875 45H29.5625V46.625H31.1875V45Z" fill="white"/>
<path d="M33.625 11.6875H32V13.3125H33.625V11.6875Z" fill="white"/>
<path d="M32 13.3125H30.375V14.9375H32V13.3125Z" fill="white"/>
<path d="M30.375 11.6875H28.75V13.3125H30.375V11.6875Z" fill="white"/>
<path d="M28.75 13.3125H27.125V14.9375H28.75V13.3125Z" fill="white"/>
<path d="M27.125 11.6875H25.5V13.3125H27.125V11.6875Z" fill="white"/>
<path d="M25.5 13.3125H23.875V14.9375H25.5V13.3125Z" fill="white"/>
<path d="M23.875 11.6875H22.25V13.3125H23.875V11.6875Z" fill="white"/>
<path d="M22.25 13.3125H20.625V14.9375H22.25V13.3125Z" fill="white"/>
<path d="M20.625 11.6875H19V13.3125H20.625V11.6875Z" fill="white"/>
<path d="M19 13.3125H17.375V14.9375H19V13.3125Z" fill="white"/>
<path d="M17.375 11.6875H15.75V13.3125H17.375V11.6875Z" fill="white"/>
<path d="M15.75 13.3125H14.125V14.9375H15.75V13.3125Z" fill="white"/>
<path d="M14.125 11.6875H12.5V13.3125H14.125V11.6875Z" fill="white"/>
<path d="M12.5 13.3125H10.875V14.9375H12.5V13.3125Z" fill="white"/>
<path d="M10.875 11.6875H9.25V13.3125H10.875V11.6875Z" fill="white"/>
<path d="M11.2942 31.086C11.4161 31.1534 11.5518 31.1875 11.6875 31.1875C11.8378 31.1875 11.9865 31.1461 12.1181 31.064L17.375 27.7791V30.375C17.375 30.6708 17.5351 30.9421 17.7943 31.086C17.9161 31.1534 18.0518 31.1875 18.1875 31.1875C18.3378 31.1875 18.4865 31.1461 18.6181 31.064L23.875 27.7791V30.375C23.875 30.6708 24.0351 30.9421 24.2943 31.086C24.4161 31.1534 24.5518 31.1875 24.6875 31.1875C24.8378 31.1875 24.9865 31.1461 25.1181 31.064L31.6181 27.0015C31.8554 26.8528 32 26.5928 32 26.3125C32 26.0322 31.8554 25.7722 31.6181 25.6235L25.1181 21.561C24.8663 21.4042 24.5502 21.3961 24.2934 21.5399C24.0351 21.6829 23.875 21.9543 23.875 22.25V24.846L18.6181 21.5602C18.3662 21.4034 18.051 21.3953 17.7934 21.5391C17.5351 21.6829 17.375 21.9543 17.375 22.25V24.846L12.1181 21.5602C11.8663 21.4034 11.5502 21.3953 11.2934 21.5391C11.0351 21.6829 10.875 21.9543 10.875 22.25V30.375C10.875 30.6708 11.0351 30.9421 11.2942 31.086ZM25.5 23.7158L29.6543 26.3125L25.5 28.9093V23.7158ZM19 23.7158L23.1543 26.3125L19 28.9093V23.7158ZM12.5 23.7158L16.6543 26.3125L12.5 28.9093V23.7158Z" fill="white"/>
</svg>
