<svg width="64" height="64" viewBox="0 0 64 64" fill="none" xmlns="http://www.w3.org/2000/svg">
<path fill-rule="evenodd" clip-rule="evenodd" d="M11.2 0H52.8C58.9856 0 64 5.01465 64 11.2002V52.7998C64 58.9854 58.9856 64 52.8 64H11.2C5.0144 64 0 58.9854 0 52.7998V11.2002C0 5.01465 5.0144 0 11.2 0ZM17.3 19.77H9.62C9.49304 19.7715 9.36829 19.8032 9.25586 19.8618C9.14331 19.9204 9.04614 20.0049 8.97217 20.1079C8.93335 20.1621 8.90149 20.2207 8.8772 20.2822C8.85522 20.3379 8.83936 20.396 8.83008 20.4556C8.82202 20.5073 8.81909 20.5591 8.82104 20.6108C8.82385 20.6855 8.83691 20.7593 8.85999 20.8301C10.7771 26.5356 13.5962 31.897 17.21 36.71C20.66 41.25 24.27 45.3198 30.37 45.71C30.5601 45.7202 32.65 45.6802 34.1801 45.5898C34.5974 45.5591 34.9861 45.3662 35.2628 45.0518C35.5394 44.7378 35.682 44.3281 35.66 43.9102C35.59 42.29 35.73 39.8101 37.1899 39.54C38.95 39.21 42.85 43.3301 44.1899 44.8101C44.3378 44.9771 44.5194 45.1108 44.7229 45.2021C44.9264 45.2935 45.147 45.3403 45.37 45.3398H54C58 45.3398 51 37.5801 48.4399 34.8398C48.1876 34.5757 48.0338 34.2329 48.0048 33.8687C47.9756 33.5044 48.0728 33.1411 48.28 32.8398C50.7173 29.1924 52.8289 25.3379 54.59 21.3198C54.6412 21.1982 54.6614 21.0654 54.6489 20.9341C54.6364 20.8027 54.5914 20.6763 54.5182 20.5664C54.4775 20.5054 54.429 20.4507 54.3739 20.4033C54.3295 20.3652 54.2809 20.332 54.2289 20.3042C54.1123 20.2417 53.9822 20.2095 53.85 20.21H45.3C45.1406 20.209 44.9846 20.2563 44.8525 20.3452C44.7205 20.4346 44.6185 20.5615 44.5601 20.71C43.66 23.02 39.8 32.4302 36.8 31.5098C35.0797 30.9839 35.6337 27.1963 35.9988 24.6997C36.1198 23.873 36.22 23.188 36.21 22.8101C36.17 21.29 35.91 19.5 34.38 18.8599C31.5457 18.083 28.5544 18.083 25.72 18.8599C25.5699 18.9199 23.35 20.3398 24.15 20.3398C27.2 20.3398 28.05 31.7402 25.65 31.7402C22.42 31.04 18.89 22.4702 18.04 20.2798C17.9832 20.1299 17.8818 20.0005 17.7496 19.9097C17.6174 19.8184 17.4606 19.7695 17.3 19.77Z" fill="#4489C8"/>
</svg>
