<svg width="40" height="40" viewBox="0 0 40 40" fill="none" xmlns="http://www.w3.org/2000/svg">
<rect x="0.5" y="0.5" width="39" height="39" rx="4.5" stroke="white"/>
<path d="M31.8674 25.5466C31.8371 25.478 31.8089 25.4211 31.7827 25.3755C31.349 24.554 30.5201 23.5456 29.2966 22.3502L29.2707 22.3228L29.2578 22.3094L29.2447 22.2956H29.2316C28.6763 21.7389 28.3246 21.3646 28.1774 21.173C27.9079 20.8079 27.8476 20.4384 27.9948 20.064C28.0989 19.7812 28.4897 19.1838 29.1663 18.271C29.5222 17.7873 29.8041 17.3997 30.0123 17.1076C31.5136 15.0086 32.1645 13.6673 31.9648 13.0832L31.8873 12.9467C31.8352 12.8645 31.7007 12.7893 31.484 12.7208C31.2668 12.6524 30.9892 12.641 30.6507 12.6866L26.9021 12.7139C26.8413 12.6912 26.7546 12.6934 26.6416 12.7208C26.5288 12.7482 26.4724 12.762 26.4724 12.762L26.4071 12.7962L26.3553 12.8374C26.3119 12.8647 26.2642 12.9126 26.2121 12.981C26.1602 13.0492 26.1169 13.1293 26.0822 13.2205C25.6741 14.3248 25.2101 15.3514 24.6893 16.3004C24.3682 16.8663 24.0733 17.3567 23.804 17.7719C23.5351 18.1871 23.3095 18.4929 23.1274 18.6889C22.945 18.8852 22.7804 19.0424 22.6326 19.1611C22.4851 19.2799 22.3724 19.3301 22.2944 19.3118C22.2162 19.2934 22.1426 19.2752 22.0729 19.257C21.9515 19.1748 21.8538 19.063 21.7802 18.9216C21.7062 18.7802 21.6565 18.6022 21.6304 18.3877C21.6045 18.1731 21.5892 17.9885 21.5848 17.8333C21.5808 17.6783 21.5826 17.4591 21.5914 17.1762C21.6005 16.8932 21.6045 16.7017 21.6045 16.6013C21.6045 16.2545 21.611 15.8781 21.6239 15.472C21.637 15.0659 21.6476 14.7441 21.6565 14.5071C21.6653 14.2698 21.6694 14.0188 21.6694 13.7541C21.6694 13.4895 21.6541 13.2819 21.6239 13.1313C21.5939 12.9808 21.548 12.8348 21.4875 12.6932C21.4267 12.5518 21.3376 12.4424 21.2207 12.3647C21.1036 12.2871 20.958 12.2256 20.7847 12.1798C20.3247 12.0704 19.739 12.0112 19.0273 12.0019C17.4133 11.9837 16.3763 12.0933 15.9164 12.3306C15.7341 12.4309 15.5692 12.5678 15.4218 12.7411C15.2656 12.9419 15.2438 13.0515 15.3566 13.0696C15.8773 13.1516 16.2459 13.3478 16.4629 13.6581L16.5411 13.8225C16.6019 13.9411 16.6626 14.1511 16.7234 14.4522C16.7841 14.7533 16.8233 15.0863 16.8405 15.4512C16.8838 16.1175 16.8838 16.6878 16.8405 17.1623C16.797 17.6369 16.756 18.0064 16.7169 18.2711C16.6777 18.5358 16.6192 18.7502 16.5411 18.9144C16.4629 19.0787 16.4109 19.1791 16.3848 19.2155C16.3588 19.2519 16.3371 19.2749 16.3198 19.2839C16.2071 19.3294 16.0898 19.3525 15.9683 19.3525C15.8468 19.3525 15.6993 19.2886 15.5258 19.1608C15.3523 19.0329 15.1723 18.8574 14.9857 18.6337C14.7991 18.4101 14.5886 18.0975 14.3543 17.6961C14.1201 17.2946 13.8771 16.8201 13.6254 16.2725L13.4172 15.8755C13.287 15.62 13.1092 15.2481 12.8836 14.7599C12.6578 14.2716 12.4583 13.7993 12.2848 13.343C12.2155 13.1514 12.1113 13.0055 11.9725 12.9051L11.9073 12.8639C11.864 12.8275 11.7945 12.7888 11.6991 12.7475C11.6036 12.7063 11.5039 12.6768 11.3997 12.6586L7.83321 12.6859C7.46876 12.6859 7.22148 12.7727 7.09127 12.9461L7.03916 13.0281C7.01313 13.0738 7 13.1468 7 13.2473C7 13.3476 7.02603 13.4709 7.07814 13.6168C7.59879 14.9036 8.16498 16.1446 8.77671 17.3401C9.38844 18.5355 9.92003 19.4985 10.3711 20.2281C10.8224 20.9582 11.2823 21.6473 11.7509 22.2951C12.2195 22.943 12.5297 23.3583 12.6815 23.5407C12.8334 23.7235 12.9528 23.8601 13.0396 23.9513L13.365 24.2798C13.5733 24.4989 13.8791 24.7612 14.2826 25.0669C14.6862 25.3727 15.1331 25.6738 15.6234 25.9706C16.1137 26.267 16.6842 26.5088 17.3351 26.6958C17.9859 26.883 18.6193 26.9582 19.2355 26.9219H20.7324C21.036 26.8944 21.266 26.794 21.4223 26.6207L21.4741 26.5521C21.509 26.4976 21.5416 26.413 21.5717 26.2991C21.6021 26.1851 21.6172 26.0594 21.6172 25.9227C21.6084 25.5304 21.6368 25.1768 21.7017 24.862C21.7666 24.5473 21.8405 24.31 21.9232 24.1502C22.0059 23.9906 22.0991 23.8558 22.2029 23.7466C22.307 23.6372 22.3811 23.5709 22.4246 23.548C22.4678 23.5251 22.5023 23.5095 22.5284 23.5001C22.7366 23.4272 22.9817 23.4978 23.264 23.7125C23.5461 23.9269 23.8106 24.1917 24.0581 24.5064C24.3054 24.8214 24.6026 25.1748 24.9496 25.5672C25.2969 25.9596 25.6005 26.2514 25.8608 26.4433L26.121 26.6076C26.2948 26.7172 26.5204 26.8176 26.7982 26.9088C27.0754 27 27.3183 27.0228 27.5269 26.9772L30.8589 26.9226C31.1885 26.9226 31.445 26.8652 31.6269 26.7513C31.8091 26.6372 31.9174 26.5116 31.9523 26.3749C31.9872 26.2381 31.989 26.0828 31.959 25.9092C31.9281 25.7361 31.8977 25.6151 31.8674 25.5466Z" fill="white"/>
</svg>
