<svg width="17" height="18" viewBox="0 0 17 18" fill="none" xmlns="http://www.w3.org/2000/svg">
<path d="M13.539 12.3319V16.1093C13.539 16.3863 13.2989 16.6129 13.0054 16.6129H1.53358C1.24011 16.6129 1 16.3863 1 16.1093V1.50364C1 1.22664 1.24011 1 1.53358 1H8.44338L13.539 5.55796V9.31009" stroke="#FDFDFD"/>
<path d="M13.5387 5.75955H9.0033C8.70984 5.75955 8.46973 5.53291 8.46973 5.25591V1.25195" stroke="#FDFDFD"/>
<path d="M3.40088 5.28125H6.86912" stroke="#FDFDFD"/>
<path d="M3.40088 7.79932H11.6713" stroke="#FDFDFD"/>
<path d="M3.40088 9.56201H11.6713" stroke="#FDFDFD"/>
<path d="M3.40088 11.8281H9.80378" stroke="#FDFDFD"/>
<path d="M3.40088 13.3389H7.93627" stroke="#FDFDFD"/>
<path d="M8.20312 15.8574L9.2436 13.4902L14.6594 8.37828C14.7661 8.27755 14.9529 8.27755 15.0862 8.37828L16.1267 9.36038C16.2334 9.46111 16.2334 9.63739 16.1267 9.7633L10.7109 14.8753L8.20312 15.8574Z" stroke="#FDFDFD" stroke-linejoin="round"/>
<path d="M14.0459 8.98242L15.4869 10.3423" stroke="#FDFDFD"/>
</svg>
